<?xml version="1.0" encoding="UTF-8"?>
<svg width="232px" height="237px" viewBox="0 0 232 237" version="1.1" xmlns="http://www.w3.org/2000/svg" xmlns:xlink="http://www.w3.org/1999/xlink">
    <!-- Generator: Sketch 51.3 (57544) - http://www.bohemiancoding.com/sketch -->
    <title>sementes_sesamo</title>
    <desc>Created with Sketch.</desc>
    <defs></defs>
    <g id="Page-1" stroke="none" stroke-width="1" fill="none" fill-rule="evenodd" stroke-linecap="round" stroke-linejoin="round">
        <g id="sementes_sesamo" transform="translate(4.000000, -5.000000)" fill-rule="nonzero">
            <path d="M218.5793,126.048022 C218.5793,184.88758 170.880414,232.586467 112.040857,232.586467 C53.2013001,232.586467 5.50241072,184.88758 5.50241072,126.048022 C5.50241072,67.2084589 53.2013001,19.5095718 112.040857,19.5095718 C170.880414,19.5095718 218.5793,67.2084589 218.5793,126.048022 Z" id="path3230-2-6" stroke="#9A8E6C" stroke-width="17.2396645" fill="#9A8E6C"></path>
            <g id="g3141" transform="translate(43.542592, 0.000000)" fill="#FFFFFF" stroke="#FFFFFF" stroke-width="0.5">
                <path d="M83.9430007,113.887627 L85.4958701,111.817078 L88.2565825,109.228907 L92.0525412,106.468195 L97.9190481,101.982072 L102.836579,98.790174 L107.236487,96.1157879 L111.808992,93.5275607 L118.020358,90.7666252 L124.490982,88.609918 L127.596776,88.1788442 L129.839754,88.3511622 L130.961271,89.1275969 C120.959579,100.179146 110.733204,111.174483 99.817111,121.99739 C100.213052,122.779624 99.6542733,124.39735 101.715062,123.7228 C112.253896,112.995756 122.576858,102.124889 132.427925,90.9393336 L132.686681,93.8724197 C132.58909,95.5055369 132.41008,97.3012686 132.082899,99.3934542 L130.702571,106.467748 L128.114344,113.025033 L121.557673,127.001136 L117.761658,133.730348 L115.173487,137.871389 L112.412719,141.063565 L108.616816,144.428116 L104.130693,147.706451 L97.6602365,150.035867 C95.3883718,150.718335 93.1165628,151.278787 90.8447539,150.81219 L85.6684669,149.259544 L81.6999114,147.016287 C80.0189468,145.361365 78.6899793,143.354502 77.2137328,141.494862 C76.1245048,138.965636 75.6000782,136.662319 75.6608635,134.593109 L76.0060571,128.381464 C77.1275739,124.928915 79.0814589,120.811184 80.3196389,119.064081 L83.9430007,113.887627 Z" id="path4248"></path>
                <path d="M45.3491836,126.128226 L44.0179854,127.88269 L41.6694978,130.061816 L38.4535648,132.371713 L33.4798211,136.130475 L29.3200987,138.792203 L25.6012091,141.017614 L21.739725,143.166012 L16.5066679,145.435088 L11.0671638,147.180073 L8.46627768,147.498499 L6.5960421,147.312239 L5.6723843,146.625365 C14.2085372,137.290136 22.9314516,128.007049 32.2274208,118.8839 C31.9095527,118.204387 32.4036424,116.822497 30.6710939,117.367669 C21.6917659,126.414697 12.8903326,135.589152 4.4777021,145.042215 L4.30984543,142.515163 C4.41858979,141.112194 4.59815739,139.570756 4.90582026,137.776865 L6.1761216,131.715789 L8.44659216,126.120028 L14.1544439,114.210848 L17.4363484,108.487661 L19.6665557,104.969976 L22.0251928,102.271332 L25.251108,99.4420824 L29.0519741,96.6987134 L34.4942107,94.8051117 C36.4028693,94.2569286 38.3092973,93.8133632 40.1987722,94.253025 L44.4956799,95.6764049 L47.7725655,97.6732301 C49.1488229,99.1251624 50.2253362,100.873827 51.427268,102.498356 C52.2948249,104.692204 52.6945022,106.682114 52.609347,108.460837 L52.2178673,113.797452 C51.2238882,116.747882 49.5237399,120.256309 48.4606663,121.737854 L45.3491836,126.128226 Z" id="path4248-0"></path>
                <path d="M61.4134014,78.2631995 L60.6314458,76.4939568 L59.8925977,73.7169606 L59.3522219,70.1674891 L58.3862932,64.6079201 L57.9156253,60.1393079 L57.6027762,56.2022604 L57.3914218,52.1751503 L57.5542595,46.9590462 L58.1525207,41.7677023 L58.7995775,39.479498 L59.5553229,37.990035 L60.3444723,37.4781 C64.0195295,48.1033156 67.595713,58.8647126 70.8683046,70.0437994 C71.4497245,70.0326461 72.251254,70.9649477 72.4491129,69.3157699 C69.1238779,58.4292333 65.6499699,47.6431876 61.8512229,37.076694 L63.6746147,37.8866442 C64.6195195,38.5043121 65.6376455,39.2330108 66.7893318,40.1638625 L70.6036934,43.5003066 L73.7583392,47.4959645 L80.1792192,56.7298657 L83.0847011,61.6167812 L84.7992928,64.7980833 L85.8981684,67.7786824 L86.7983486,71.5315894 L87.4462977,75.7316867 L86.9510926,80.9811391 C86.6967981,82.7786554 86.3691151,84.5349604 85.4296754,85.9451794 L82.9974825,88.9934231 L80.5053408,90.9755817 C79.0297078,91.5776908 77.4467246,91.8182668 75.9086891,92.2101368 C74.0842377,92.1091998 72.5588053,91.6948559 71.3432665,90.9556173 L67.7417093,88.6240826 C66.010555,86.6867602 64.125151,83.9509195 63.4443555,82.5078541 L61.4134014,78.2631995 Z" id="path4248-5"></path>
                <path d="M79.0212313,31.5892308 L77.8565514,30.9625288 L76.2882347,29.7006481 L74.4986373,27.8577381 L71.6319131,25.0392517 L69.4902627,22.5998649 L67.6574464,20.3926891 L65.840635,18.0730884 L63.7195624,14.8200708 L61.8405157,11.3340615 L61.2162674,9.57926219 L60.9892984,8.24633526 L61.1922879,7.48668624 C67.6438394,11.8318875 74.1004657,16.3158355 80.5723161,21.2258382 C80.877358,20.8890095 81.6977365,20.9966386 81.1048846,19.8846021 C74.7288407,15.1819386 68.3162141,10.6247137 61.8237858,6.38557996 L63.1363581,5.83795455 C63.9003011,5.67400152 64.7502916,5.53625867 65.7567624,5.44424422 L69.1975453,5.29367512 L72.5664453,5.9183696 L79.8895689,7.857142 L83.5031716,9.16374723 L85.7615409,10.1150094 L87.6074624,11.2952481 L89.6744973,13.0565162 L91.796741,15.2324071 L93.7551431,18.6949946 C94.380228,19.9290478 94.949658,21.1795521 95.0468587,22.5689146 L95.0435128,25.8006295 L94.5572303,28.4206434 C94.0274501,29.6256982 93.287152,30.6727669 92.6349648,31.7859187 C91.6219135,32.7636698 90.6352955,33.3811147 89.6758357,33.6253155 L86.7735326,34.2633381 C85.0327307,34.0754056 82.8721198,33.4911974 81.8992761,33.0044689 L79.0212313,31.5892308 Z" id="path4248-1"></path>
                <path d="M61.0353614,198.264099 L59.7960661,196.634607 L58.4657044,194.011749 L57.2739221,190.605597 L55.2566865,185.286325 L54.0198449,180.970178 L53.0583218,177.153864 L52.2116215,173.235777 L51.6645538,168.102709 L51.6696285,162.935847 L52.1547956,160.607268 L52.8913016,159.046926 L53.8108885,158.439853 C59.9685514,168.362023 66.0212621,178.43069 71.7522011,188.949281 C72.4826843,188.862285 73.6260057,189.667105 73.6372147,188.025121 C67.8821847,177.800364 61.9546137,167.693775 55.6497276,157.845719 L58.0617331,158.396133 C59.3403994,158.875166 60.726862,159.453853 62.310849,160.212331 L67.5932593,162.973378 L72.1402232,166.468365 L81.5538036,174.661053 L85.9156233,179.062635 L88.5325143,181.951554 L90.3453663,184.725873 L92.0195275,188.283486 L93.4405095,192.312939 L93.5732333,197.52302 C93.5113327,199.318306 93.353514,201.083087 92.3737552,202.590228 L89.7514549,205.90141 L86.9000106,208.176007 C85.1292064,208.962703 83.1713062,209.409503 81.2915903,209.998507 C78.9804661,210.142942 77.0005381,209.939952 75.3639077,209.377716 L70.4942241,207.573062 C68.0357094,205.90537 65.268082,203.475686 64.2031123,202.152351 L61.0353614,198.264099 Z" id="path4248-19"></path>
            </g>
        </g>
    </g>
</svg>