<?xml version="1.0" encoding="UTF-8"?>
<svg width="232px" height="231px" viewBox="0 0 232 231" version="1.1" xmlns="http://www.w3.org/2000/svg" xmlns:xlink="http://www.w3.org/1999/xlink">
    <!-- Generator: Sketch 51.3 (57544) - http://www.bohemiancoding.com/sketch -->
    <title>g3060</title>
    <desc>Created with Sketch.</desc>
    <defs></defs>
    <g id="Page-1" stroke="none" stroke-width="1" fill="none" fill-rule="evenodd" stroke-linecap="round" stroke-linejoin="round">
        <g id="g3060" transform="translate(9.000000, 4.000000)" fill-rule="nonzero">
            <path d="M213.660765,111.515315 C213.660765,170.354873 165.961879,218.05376 107.122322,218.05376 C48.2827651,218.05376 0.583875738,170.354873 0.583875738,111.515315 C0.583875738,52.675752 48.2827651,4.97686488 107.122322,4.97686488 C165.961879,4.97686488 213.660765,52.675752 213.660765,111.515315 Z" id="path3230-2-7" stroke="#54BF36" stroke-width="17.2396645" fill="#54BF36"></path>
            <g id="g4042" transform="translate(60.075511, 30.288091)" stroke-width="0.5">
                <polygon id="path3262" stroke="#FFFFFF" fill="#FFFFFF" points="89.9402239 19.8748151 89.7277542 18.0683595 89.143323 16.8994803 88.2400757 15.6774615 87.3899737 15.0398906 86.4336368 14.5086047 84.7865781 14.1898443 80.8017388 14.1368663 78.3045781 13.8711955 77.5607667 13.5523793 78.4639583 14.4556044 79.0483895 15.4119636 79.7391113 16.7933737 79.9515811 18.2279125 79.8958147 19.7155799 79.4178972 20.7782018 79.2584055 21.6282983 79.577389 22.637786 80.7462513 23.3816197 82.2870752 24.0723248 84.1466594 24.4442305 87.4407768 23.9660342 88.8221647 23.0628036 89.5660318 22.1595786 89.8314796 21.1500908"></polygon>
                <polygon id="path4032" stroke="#FFFFFF" fill="#FFFFFF" points="25.545387 20.1936033 27.1924457 19.5560268 27.8831675 18.6528018 28.308107 17.8027054 28.4146207 16.6869548 28.2021509 15.5180702 27.7242334 14.0835314 27.0866569 11.7988962 26.7676735 10.7894084 26.7119072 9.14234411 27.1368466 7.973465 27.9868929 7.44212336 29.1026657 6.96392704 30.3246734 6.69825622 31.7061171 6.80454685 32.9812143 7.33588849 34.2032778 8.18598493 35.4252855 8.82355586 37.0191989 9.46112679 38.6662576 9.35483616 39.8351199 8.87663983 41.0571276 7.92028065 42.5979515 6.06069644 43.6074337 4.73242041 44.8294414 3.56353573 46.0514491 2.81970204 47.6985078 2.55403122 49.2393316 2.76655673 52.108398 3.82917866 53.808602 4.30737499 55.4025154 4.51990049 56.5182883 4.51990049 58.2184923 3.88232956 60.0780765 3.24475863 62.5220919 2.7665623 64.2222959 2.87279717 65.9755895 3.56349669 67.7820841 4.51985588 69.1103267 5.90126607 70.7573854 8.07963853 71.9793931 9.99235132 73.0420206 12.1175952 71.9793931 11.9050697 68.738421 11.7987791 66.9319821 11.9050697 65.2849234 12.1175952 63.4784288 12.4895009 61.3000842 13.2864687 59.5998802 13.9771682 58.9091583 14.7741361 58.5371969 15.9430208 58.5371969 16.9525086 58.8561803 18.1213932 59.5999917 20.459157 56.8371602 19.3434065 54.4994354 18.2807846 51.7366039 16.9525086 48.7612468 15.7836239 46.8485731 15.1460529 44.1919764 14.7210019 42.2793026 14.8272368 40.5790986 15.7304674 39.2508003 17.0587434 38.7193471 18.9183276 38.2944076 21.9467965 37.7629545 24.3908231 36.8597629 26.5691955 35.6908448 27.0473919 34.0969314 26.8348664 32.1842019 25.9316358 29.5808063 24.1251801 26.8179747 21.5217623"></polygon>
                <path d="M15.9225713,32.8113389 L15.9225713,29.5396173 L16.3369151,26.951853 L18.4243048,23.7659836 L19.3866087,21.8414428 C19.55335,21.4414866 19.6046551,20.8491031 19.5505617,20.0807323 C19.056472,19.2369709 18.4009945,19.0381918 17.7651467,18.7611893 L14.9326073,17.8828026 C13.8239725,17.9629388 12.5927634,17.7799694 11.8237456,18.2677018 C10.0746345,19.0427646 10.3608831,19.4107611 9.95646568,19.9168852 L8.60926256,23.1886124 L7.64701445,24.7282429 L6.29981133,25.4980637 L4.54004887,25.9658874 C4.43130451,26.2705947 4.15581882,26.5410112 4.59748819,26.7080704 L6.32959056,28.6326113 C7.19190539,29.5663851 7.89796296,30.5783266 8.02912538,31.8776878 L8.06258518,33.6107605 C7.92818831,34.7192893 7.36355417,35.5695028 6.87922355,36.4679709 L5.91697544,37.4302469 L8.22642667,36.8528813 L10.9780492,36.2765028 L13.422678,35.3132453 L15.1547804,34.3509749 L15.9225713,32.8113389 Z" id="path3283" stroke="#FFFFFF" fill="#FFFFFF"></path>
                <path d="M22.6945562,21.8346393 L21.140683,24.5073803 L20.1530612,27.3804396 L19.793926,29.8943692 L19.4347908,32.0491637 L19.1654394,33.9346123 L18.3573852,35.1017905 L17.2799796,36.3587526 L16.112846,36.9872392 L13.9580348,38.4237688 L11.8930074,38.9624716 L8.93019782,39.7705202 L5.78776484,40.3990012 L3.63295366,40.937704 L2.10662907,41.4764068 L5.06949445,42.7333689 L7.94257603,43.7209851 L11.174737,44.7085957 L15.8434946,46.2349092 L19.9734936,47.0429578 L21.589602,47.9407902 L23.834197,51.3525523 L25.0911144,52.3401629 L26.4378714,52.9686439 L28.5926826,52.9686439 L29.759872,53.5971305 L30.8372776,54.4051791 L31.3759804,55.931487 L30.8372776,57.637368 L30.8372776,58.9841139 L31.106629,59.7023843 L32.094195,60.3308653 L32.543114,67.9624325 L32.6328978,87.5351557 L31.6453318,94.6280201 L30.5679262,108.454625 L29.759872,116.714673 L29.310953,125.603202 L29.310953,130.900407 L29.6700882,138.621758 L30.7474938,143.380266 L32.4533302,146.881807 L33.9796548,148.767255 L34.6081414,149.036607 L36.4038174,153.166633 L38.4688447,155.860125 L40.9827354,157.745574 L42.9579789,158.822968 L43.0477627,159.09232 L45.5617091,159.451455 L49.1530053,159.900374 L52.6545735,159.720806 L54.0911143,158.73319 L55.8867345,157.655796 L57.5028429,155.411217 L59.0291675,153.525769 L59.9270055,151.999455 C61.1837556,151.176495 62.0088743,151.130554 63.9257305,149.119408 L65.9424643,145.624856 L67.3790051,141.943748 L68.3666269,137.18524 L68.7257621,132.516516 L68.3666269,124.615603 L67.8279241,117.163598 L67.3790051,111.148128 L67.1096537,105.312225 L66.9300861,97.1419609 L67.2892213,81.9686104 L66.7505185,69.0398381 L66.7505185,61.6776223 L66.5709509,56.021282 L67.1718889,55.9001017 L67.8350622,56.5080496 L69.0509913,56.8949006 L69.8800137,57.0606939 L70.2118234,56.7291073 L71.7040747,54.7947293 L73.5279127,52.8603513 L74.5227283,51.5891856 L74.743563,50.8154332 L74.743563,50.0416809 L74.909189,49.4889808 L75.848796,47.8862061 L77.8384273,46.172897 L79.9385875,44.7359324 L82.3703901,43.5200367 L85.2443081,42.3594054 L87.6208463,40.9777052 L89.3894198,39.7618095 L90.6606134,38.7669883 L91.3791069,37.993236 L91.9870157,37.2194837 L90.9922001,37.2194837 L89.0578332,36.887897 L87.455053,36.3904613 L86.4602373,35.727249 L86.0180103,35.0087611 L85.9075929,33.7928654 L86.7366153,32.0242919 L88.5051888,29.5925005 L89.9974402,27.7686513 L90.6054048,26.7738301 L91.0476318,25.9448078 L91.2684665,25.3921076 L90.3841797,25.8342789 L88.9472486,26.2763944 L87.178675,26.7185099 L85.4653659,26.8290388 L84.028379,26.9395677 L82.0387477,26.8290388 L80.6570252,26.4974521 C80.6570252,26.4974521 79.6622095,25.6131654 79.6622095,26.0552809 C79.6622095,26.4974521 78.1146938,25.1157241 78.1146938,25.1157241 L77.0093492,23.9550928 L76.5119135,22.4628582 L76.5119135,21.025888 L76.9541406,18.7046366 L77.2859502,17.2676664 L76.8437232,16.2728396 L75.904172,15.3885528 L73.6934272,14.6700705 L71.593267,14.3937483 L68.9404067,14.3937483 L66.7849263,14.5042772 L65.0163528,14.8358639 L63.5241014,15.4990817 L62.6398146,16.9360463 L62.5840483,19.1467688 L62.8606493,20.9706124 L62.4736309,22.462847 L61.4235509,22.8496981 L59.6549773,22.6839048 L57.002117,21.8548825 L54.4045211,20.9705957 L51.3094895,19.7547 L48.4908359,18.7046087 L46.556469,18.2624375 L45.1747465,18.0966441 L44.069402,18.1518528 L42.4113573,18.5939683 L41.3612772,19.7545996 L41.0294675,21.6337076 L40.5872405,24.0102346 L40.2554308,25.7788081 L39.647522,27.2157783 L38.7632352,28.431674 L37.5473061,29.3712308 L36.1656393,29.7028174 L34.2865369,29.7028174 L32.4626432,29.2053817 L30.1966897,27.8789516 L27.7096227,26.2209125 L25.8857847,24.5628678 L24.5593266,23.3469721 L23.1776599,22.2416164 L22.6945562,21.8346393 Z" id="path3265" stroke="#FFFFFF" fill="#FFFFFF"></path>
                <polygon id="path4036" stroke="#54BF36" fill="#54BF36" points="59.7106879 44.9017424 59.2684608 39.4302062 59.0476262 34.8982323 58.8267915 33.737601 58.2188269 35.2851056 57.7213912 36.9984148 57.3343728 38.6564538 57.0577718 40.4802974 57.0020055 41.9725376 57.1676315 44.0727201 57.3332575 48.0520162 57.2228401 51.9760422 57.0572141 57.7791874 57.4994412 57.7239787 57.4436748 60.4873791 57.6650672 64.6877496 57.8306932 67.2300755 58.1625029 71.8725894 58.9915252 85.5237867 58.7706905 91.4374608 58.6050645 96.1352392 58.7154819 100.169805 58.6597155 102.380528 58.7701329 112.273498 59.3780975 121.005842 59.6546985 125.924695 59.9312995 128.577561 60.9261151 143.389384 61.0917412 145.102693 60.8709065 147.202876 60.5943055 148.363501 60.5385391 149.413598 61.7544125 148.474041 62.7492282 147.42395 63.2466639 146.650198 63.7440996 145.765905 64.3520084 143.776257 64.9046528 140.460179 65.4020885 132.169978 65.4020885 126.366839 65.1254875 119.292533 64.7384691 111.886619 64.4618681 106.912502 64.019641 100.777753 63.7988064 98.6775706 63.7988064 93.3165744 63.688389 89.0056694 63.522763 84.252621 63.1357446 63.029705 63.1357446 56.508083 62.91491 54.518435 62.6383089 52.141908 62.4174742 49.6548522 62.4174742 47.8310086 62.1966396 46.5045729 61.9758049 45.841355 61.6992038 45.4545039 61.3121855 45.343975 60.7042209 45.1781817 60.3724112 45.1781817"></polygon>
                <polygon id="path4038" stroke="#54BF36" fill="#54BF36" points="33.5136713 36.8326103 35.9454181 38.103776 38.1008985 38.9880628 39.4273007 39.3749696 40.9748165 39.4854985 41.9143678 38.9880628 42.0247851 37.9379715 41.5825581 36.7220758 41.7481841 36.3904892 43.1299066 38.1590683 45.0642734 40.8119287 48.4356272 45.6755171 50.2594652 48.5494519 52.8017966 52.197139 53.6860834 54.573666 54.4045769 56.8396529 54.6811779 58.7740309 55.1234049 58.9398242 55.1234049 61.2610812 55.2890309 63.5270682 55.5098656 69.4960123 55.1228473 81.1575615 54.6806202 96.3562634 55.2885848 105.088608 56.3386649 122.608567 56.8361006 131.230371 57.0569353 141.786559 56.6147083 147.31336 55.2330415 151.403196 54.1829615 153.061235 52.5801812 154.387665 50.314172 155.493027 48.6008628 156.045727 46.2243247 156.045727 44.3452223 155.21671 41.7476264 153.171792 39.7579951 150.076783 38.2104793 145.489539 37.8234609 140.460151 37.9338783 136.425585 38.0442956 130.401377 38.320339 127.361637 38.762566 118.905632 39.9784394 109.233731 41.3048975 98.4564682 42.0233352 90.4978761 42.1889612 86.0764367 42.2447275 84.1420587 42.2447275 82.3182095 42.1343102 79.7206136 42.6869546 83.6446453 42.9077892 87.4028668 43.405225 92.1559152 43.7922433 95.8588724 44.6765859 105.586044 45.3397591 113.434096 45.9477237 121.226889 46.2243247 124.321893 46.2243247 129.296015 46.2243247 132.280485 46.1685584 136.978269 45.8919574 141.786582 46.3893931 142.560334 46.9420374 142.89192 47.6605309 142.836712 48.2684955 142.449805 48.2127292 142.062954 48.5997475 133.993822 48.4893302 129.185509 48.5450965 127.030056 48.1028695 118.739855 47.3291673 108.95742 46.500145 100.114535 44.8421003 83.5341387 44.1236069 74.4701853 43.4051134 67.9485578 43.2946961 67.4511221 43.0738614 67.3959134 43.7370346 59.9899991 44.2344704 60.1557925 44.0688443 59.6030923 43.7922433 58.77407 43.8480097 57.4476398 43.6823836 54.8500439 43.6823836 53.4130737 43.4615489 51.2023568 42.6877911 48.5494909 41.7482398 46.283504 40.200724 43.6859081 38.2110927 41.0330422 36.3319903 39.264463 35.0607967 38.1038373"></polygon>
                <polygon id="path4040" stroke="#54BF36" fill="#54BF36" points="34.0826552 144.224753 33.8902613 137.688888 34.2750491 127.885083 36.9662766 110.199793 39.4652776 94.2445819 40.0419573 88.2854081 40.0419573 83.8640858 40.0419573 82.3262343 40.4261873 59.4506996 39.272828 55.0293773 38.3116394 53.4915258 37.1056367 51.6380257 35.47146 49.7154925 32.9721802 47.7929648 33.8373391 50.1961258 34.7985834 51.8302802 35.7598277 53.6566834 35.7598277 55.5792111 35.8557458 57.3094899 35.663352 59.1358931 35.2791219 60.481663 35.5674339 61.4429297 35.8557458 64.2305939 35.9516639 67.8834004 36.2399759 73.9393734 36.335894 79.1302043 36.047582 85.7629295 36.047582 88.6467238 34.7979142 101.143168 33.9327553 106.910762 33.4520495 113.062854 33.0678194 116.138902 32.7800651 124.117403 32.5876713 130.654004 32.3952774 134.691319 32.5876713 138.920883 32.8759832 141.420174 33.4527744 143.534956"></polygon>
            </g>
        </g>
    </g>
</svg>