<?xml version="1.0" encoding="UTF-8"?>
<svg width="231px" height="231px" viewBox="0 0 231 231" version="1.1" xmlns="http://www.w3.org/2000/svg" xmlns:xlink="http://www.w3.org/1999/xlink">
    <!-- Generator: Sketch 51.3 (57544) - http://www.bohemiancoding.com/sketch -->
    <title>lacteos</title>
    <desc>Created with Sketch.</desc>
    <defs></defs>
    <g id="Page-1" stroke="none" stroke-width="1" fill="none" fill-rule="evenodd" stroke-linejoin="round">
        <g id="lacteos" transform="translate(-2.000000, -4.000000)" fill-rule="nonzero">
            <path d="M231.466027,119.439487 C231.466027,182.360496 180.458474,233.368052 117.537469,233.368052 C54.6164627,233.368052 3.60890533,182.360496 3.60890533,119.439487 C3.60890533,56.5184726 54.6164627,5.51091572 117.537469,5.51091572 C180.458474,5.51091572 231.466027,56.5184726 231.466027,119.439487 Z" id="path3230-0-5" stroke="#6D351E" stroke-width="2.7883167" fill="#6D351E" stroke-linecap="round"></path>
            <g id="g4264" transform="translate(64.298070, 45.827937)" stroke-width="0.5">
                <polygon id="path4240" stroke="#FFFFFF" fill="#FFFFFF" stroke-linecap="round" points="65.3508938 7.21475273 77.2012398 3.20654748 85.9147295 0.941040156 91.4913629 1.11530995 95.6738379 2.5094683 99.1592338 5.82059438 99.5077734 9.82879964 98.8106942 12.6171163 95.8481077 15.0568935 90.7942837 17.6709404 87.134618 19.9364477 85.0433805 22.7247644 83.6492222 28.6499374 82.6036034 33.5294916 83.6492222 41.0230927 87.4831576 46.0769167 92.7112514 53.3962481 98.4621546 65.7694034 100.901932 73.7858139 103.167439 87.9016672 103.864518 97.8350455 103.341988 107.419884 101.42502 117.876072 98.2881637 125.369673 94.628498 131.643385 90.446023 138.439907 86.4378177 142.448113 81.5582635 145.236429 72.670504 146.282048 48.6212725 145.933509 40.9534015 145.236429 37.2937359 144.36508 34.3311494 142.448113 30.4972139 138.265638 22.3065336 126.066752 19.1696773 117.353262 17.0784398 109.511122 16.7299002 101.668981 16.9044488 98.3578549 14.2904019 94.5239194 10.4564665 87.5531277 6.97107058 80.4080661 3.83421429 69.6033389 2.61432574 63.5038961 3.48567471 54.7904064 5.05410285 46.2511865 8.36522893 39.2803948 14.8132113 32.1353332 21.4354635 28.4756676 28.580525 26.0358905 25.6179385 20.1107175 24.7465895 15.7539726 25.4436687 12.7913861 29.2776042 10.0030694 36.9454751 7.73756211 45.1361554 6.51767356 51.409868 6.51767356 57.5093108 6.51767356 61.1689764 7.04048294 60.4718973 7.38902253 57.335041 8.26037149 53.1525659 8.26037149 48.0987419 8.60891108 40.9536804 9.30599026 35.5513168 11.0486882 32.4144605 12.7913861 33.2858094 14.5340841 36.7712053 15.405433 41.9992991 16.1025122 44.2648064 15.9282424 49.1443607 14.1855445 57.335041 10.7001486 63.260214 8.0861017"></polygon>
                <polygon id="path4253" stroke="#6D351E" fill="#6D351E" points="17.3398166 84.5034063 18.6468679 76.312726 21.3480219 67.0764269 24.6591479 58.6243419 27.6217344 53.1348434 30.1486743 49.3009079 30.9328605 47.9067496 32.065642 44.6827584 32.3271862 39.3675297 31.7172698 35.707864 30.9330278 34.7493801 29.7131393 34.1394359 28.7546833 34.4879755 23.7008592 37.2762922 20.1283006 39.8903391 15.1616394 45.031298 12.5475924 49.4751777 10.7177317 55.0518111 10.1952012 60.8898492 10.8051733 66.6407524 11.8507921 71.9559811 13.5063273 76.8355353 15.2490252 80.495201"></polygon>
                <polygon id="path4255" stroke="#6D351E" fill="#6D351E" stroke-linecap="round" points="39.733513 26.7329696 42.0861273 25.9487556 44.7001742 25.8615928 46.2686024 26.2101324 47.1399513 28.0399652 47.4884909 30.8282819 47.4884909 36.3177804 47.3139423 41.2844695 46.5297561 46.1640238 44.961328 49.9979592 44.0028162 51.9149269 42.6086579 54.7032436 40.9531227 57.4044254 38.3390758 61.6740354 36.5963779 65.7693755 33.6337914 72.3916277 31.5425538 78.4910705 30.1483955 81.8893315 29.0156139 84.6776482 27.8828882 85.2875924 26.9243764 85.1133227 26.31446 84.6776203 25.9659204 82.9349223 27.5343486 74.5699722 29.6255861 68.3833946 32.5881726 60.3669841 35.6378661 54.7032158 38.164806 49.8236615 39.9075039 45.9025912 40.4300345 42.6786 39.5586855 35.5335384 39.1231504 30.4797144 39.0364338 28.4756676"></polygon>
            </g>
        </g>
    </g>
</svg>