<?xml version="1.0" encoding="UTF-8"?>
<svg width="232px" height="232px" viewBox="0 0 232 232" version="1.1" xmlns="http://www.w3.org/2000/svg" xmlns:xlink="http://www.w3.org/1999/xlink">
    <!-- Generator: Sketch 51.3 (57544) - http://www.bohemiancoding.com/sketch -->
    <title>g4870</title>
    <desc>Created with Sketch.</desc>
    <defs></defs>
    <g id="Page-1" stroke="none" stroke-width="1" fill="none" fill-rule="evenodd">
        <g id="g4870" transform="translate(6.000000, 9.000000)">
            <path d="M216.417016,107.003429 C216.417016,165.842986 168.718131,213.541873 109.878573,213.541873 C51.0390162,213.541873 3.34012685,165.842986 3.34012685,107.003429 C3.34012685,48.1638652 51.0390162,0.464978013 109.878573,0.464978013 C168.718131,0.464978013 216.417016,48.1638652 216.417016,107.003429 Z" id="path3230-0" stroke="#C27344" stroke-width="17.2396645" fill="#C27344" fill-rule="nonzero" stroke-linecap="round" stroke-linejoin="round"></path>
            <g id="g4171" transform="translate(26.303553, 33.381951)" stroke="#FFFFFF">
                <g id="g4128" transform="translate(83.649502, 50.189701)" fill="#FFFFFF" fill-rule="nonzero" stroke-linecap="round" stroke-linejoin="round" stroke-width="0.5">
                    <polygon id="path4108" points="36.2853697 25.3277644 38.8105808 19.8348585 42.0201007 15.112582 45.0959487 12.1246441 48.3475164 9.57610582 52.3021303 7.55485501 57.5749488 5.97300388 62.7599353 4.91844018 66.6266614 4.39116948 70.3176679 4.12750625 74.6237769 4.5668892 77.260242 5.35781198 78.9299418 6.50025785 80.4239219 7.90635022 81.3906313 9.31243701 81.9176232 11.5973343 82.005734 13.8822261 81.7860146 14.8049749 54.6089605 30.24998 82.5989205 16.2769719 83.3678825 17.0898666 84.2905923 17.9467052 85.4111053 19.4187022 86.2019834 20.9126712 86.6414221 22.077089 86.9486946 23.4612094 87.0803032 24.8892682 86.7730307 26.8885526 86.3776474 28.2726675 85.6965731 29.8764905 84.8397234 31.3924314 83.7632101 32.9962489 82.7965006 34.2485489 81.1048289 36.0940409 79.9404278 37.1486046 77.5456541 39.2137993 75.3705997 40.8615607 71.7675368 43.1684244 68.5818291 44.9699725 65.8355602 46.354093 62.5620206 47.7821517 58.8051541 49.07839 55.9270536 49.7374979 54.4989893 49.8693295 53.1148688 49.9572172 51.3353093 49.8253856 49.9731608 49.6276382 48.5231246 49.2981149 47.2708358 48.858732 46.2162386 48.419349 43.8654645 47.0572005 42.4813441 46.0246032 40.8115885 44.4866959 39.7131032 43.212424 38.3729266 41.5426963 36.9668343 39.257799 36.1759003 37.7418581 35.7582105 36.6653224 35.4286315 35.413028 35.2747164 34.2925485 35.1208013 32.5788769 35.1866056 30.843239 35.3845761 28.8000162 35.889819 26.7113607"></polygon>
                    <polygon id="path4108-5" points="15.2892888 99.3559513 9.74533434 95.6554312 6.57886607 90.7489473 4.90665675 86.6827896 3.52649573 82.5362392 2.37280179 78.2474901 1.92332513 72.7608858 1.45098427 67.46996 1.74041155 63.3167789 2.42494331 59.2160739 4.09966212 55.7928575 5.42210499 53.3788053 6.88714237 51.9835205 8.57340481 50.8149871 10.1499191 50.1621697 12.4945031 50.1225756 14.7476861 50.5120476 15.6044801 50.9190304 24.6177698 85.4212492 17.2134504 50.4303723 18.0815092 49.2375359 19.2858389 48.4262808 20.9588847 47.375353 22.4105382 47.0870968 23.8151249 46.8996662 25.1458212 46.8873976 26.8313587 47.3174118 28.5485714 48.2955589 30.1685834 49.2318255 31.1598858 50.2318608 32.4642046 51.3855213 33.8087867 52.7723241 34.8323778 53.9785555 36.2853139 56.017356 37.0743518 57.3757793 38.5957689 60.1480131 39.7546491 62.6184394 41.6965444 66.4485326 43.0568527 70.4622923 43.5777102 73.3494047 44.205918 76.6742437 44.3431032 80.5315119 44.3877162 83.483765 44.2193019 84.907987 44.0168701 86.2800786 43.5177614 87.9932093 43.0409593 89.2843449 42.4167667 90.6340129 41.7263237 91.7673967 41.0770362 92.707422 39.2553174 94.723124 38.3057282 96.1233609 36.9767607 97.4363793 35.5887924 98.5940661 33.7638391 99.9058186 31.5848253 100.718306 29.5888924 101.002045 27.9262191 101.186465 26.632719 101.335305 25.1561937 101.339738 23.5351221 101.307952 21.9384204 101.14372 20.2425104 100.873253 17.6948812 100.118539"></polygon>
                </g>
                <polygon id="path4151" stroke-width="10.5956035" stroke-linecap="round" stroke-linejoin="round" points="48.7298504 50.6911412 52.9944136 40.0295772 57.9126697 30.7861454 63.2666282 21.557001 68.0418437 14.4744757 74.8172861 7.69899425 79.9391452 4.20232794 87.60038 1.83785207 96.5543901 0.662766162 106.087199 1.56280693 114.16986 6.00240389 120.727423 11.1384778 124.356139 17.2780724 125.488363 23.9105857 125.241875 31.7324778 123.891828 38.6400362 120.612991 45.1976498 117.377093 48.883587 111.240956 53.366085 105.869208 57.4877414 97.7008902 63.3059881 89.6931233 69.5742524 85.5857097 75.3067305 80.0139278 85.275225 75.3994309 96.4903034 70.1311852 104.615832 64.0093243 110.026962 57.3195947 114.74161 46.1903073 118.48473 35.0610198 120.270507 24.8318009 120.80631 16.4741003 119.877678 11.1486942 118.309752 6.99845198 115.581033 3.26974752 110.573634 1.36950965 96.8797197 3.2840237 88.8399709 7.46276248 79.3357869 12.1488634 72.5888968 19.5636668 64.7527063 29.3142432 58.2522867 35.8610994 54.8985774 42.2327378 52.6198924"></polygon>
                <polyline id="path4153" stroke-width="2.23065346" stroke-linecap="round" stroke-linejoin="round" points="71.2994342 16.4403673 80.664721 18.165549 91.5087636 21.6159126 101.120482 26.5450097 111.225119 33.692196 120.343918 41.0858362 120.343918 41.0858362"></polyline>
                <polyline id="path4155" stroke-width="2.23065346" points="59.7160972 33.199283 72.7781901 34.1851035 83.1292584 37.6354726 93.4803824 45.5220202 103.092101 55.8731164"></polyline>
                <polyline id="path4157" stroke-width="2.23065346" points="50.3508104 54.6408477 56.0192353 54.6408477 60.4554473 55.8731164 68.8348968 60.0628467 74.5033774 63.7596695 77.9537521 67.2100331 83.8686642 73.6178582"></polyline>
                <polyline id="path4159" stroke-width="2.23065346" points="20.5297628 67.2100331 28.6627809 68.4423074 38.7674177 71.1533097 47.886273 74.8501325 55.7728039 80.5185908 61.1947973 86.1870492 63.905822 90.6232333 69.3278154 100.727876"></polyline>
                <polyline id="path4161" stroke-width="2.23065346" points="7.22123849 83.2295932 21.5156001 86.4335029 28.9092681 89.390959 37.7816362 94.0735968 45.1752484 100.727876 49.1185417 105.16406 56.0192353 113.789974"></polyline>
                <polyline id="path4163" stroke-width="2.23065346" points="81.6505582 8.06090661 81.1575838 17.672636 77.4607777 26.0520966 71.7922971 37.6354726 59.9624729 55.8731164 42.4642238 72.8784914 33.098937 81.5044058 24.2265689 87.912231 15.1077136 95.3058711 11.4109075 98.5097809 4.01723947 103.685332 5.24950818 102.699511"></polyline>
                <polyline id="path4165" stroke-width="2.23065346" points="10.6716132 115.022248 14.8613379 112.804159 33.5918557 98.2633271 43.9429797 89.1445052 52.3224292 80.5185908 63.4129033 67.7029461 71.0530028 57.1053907 78.9395336 46.7542945 85.3473643 35.1709241 88.0583889 29.256012 91.7551951 21.1230051 94.7126511 10.5254496 95.9449198 2.88535575"></polyline>
                <polyline id="path4167" stroke-width="2.23065346" points="108.021231 4.36408377 104.324369 15.208093 100.134645 28.5166452 95.4520012 41.5787436 87.8119017 53.4085734 81.1576396 62.0344878 76.9679148 67.2100331 70.0671655 77.8075885 65.1380907 83.9689544 61.4412845 88.1586847 54.5405352 95.7987841 47.6397858 100.974329 26.4446749 118.472618"></polyline>
                <polyline id="path4169" stroke-width="2.23065346" points="115.168412 9.53963464 112.950306 20.8765513 111.964469 27.5308246 109.99285 34.678011 106.049557 45.5220202 102.599182 55.1337552"></polyline>
            </g>
        </g>
    </g>
</svg>