<?xml version="1.0" encoding="UTF-8"?>
<svg width="231px" height="231px" viewBox="0 0 231 231" version="1.1" xmlns="http://www.w3.org/2000/svg" xmlns:xlink="http://www.w3.org/1999/xlink">
    <!-- Generator: Sketch 51.3 (57544) - http://www.bohemiancoding.com/sketch -->
    <title>g3555</title>
    <desc>Created with Sketch.</desc>
    <defs></defs>
    <g id="Page-1" stroke="none" stroke-width="1" fill="none" fill-rule="evenodd" stroke-linecap="round" stroke-linejoin="round">
        <g id="g3555" transform="translate(5.307148, 6.000000)" fill-rule="nonzero">
            <path d="M216.925772,109.568959 C216.925772,168.408517 169.226887,216.107404 110.38733,216.107404 C51.5477725,216.107404 3.84888312,168.408517 3.84888312,109.568959 C3.84888312,50.7293954 51.5477725,3.03050825 110.38733,3.03050825 C169.226887,3.03050825 216.925772,50.7293954 216.925772,109.568959 Z" id="path3230-2-1" stroke="#4DC4D5" stroke-width="17.2396645" fill="#4DC4D5"></path>
            <g id="g3981" transform="translate(20.537737, 32.891988)" stroke-width="0.5">
                <path d="M71.1520995,3.93064551 L65.2269264,4.80199449 C62.2209537,5.54276103 59.6858719,6.83280923 58.1600492,8.46166023 L52.8537709,12.8184052 L48.3227561,16.8266105 L42.5539518,19.5188418 L36.8209495,20.8348158 L29.6758879,22.5775138 L23.9249846,27.9798775 L20.4395886,34.6021298 L16.7799229,42.095731 C15.9055068,43.3305984 13.9782222,44.3899859 11.3267003,45.3286728 C9.18192706,46.5512716 8.74432863,46.7733889 6.05622398,49.3698471 C4.60384555,51.1535613 3.54623701,53.3320285 3.56837624,56.5902659 L4.08867615,62.2479111 L5.18515383,66.4454599 C4.11522092,67.8921223 4.97435708,70.4961647 5.27828361,72.7672153 C5.81085211,76.6212378 6.64322042,80.2507117 8.35485654,83.2205757 C10.5865695,87.6674391 14.6831645,92.1143024 18.3005036,96.5611657 L29.9765799,107.765303 L43.4433691,119.122981 L53.7252871,126.268043 L51.9825892,130.276248 L47.9743838,136.375691 C46.9872082,138.002211 46.3851548,139.628725 46.5802255,141.255245 C46.6984501,144.819077 48.1403445,146.529843 49.7170818,148.051768 C52.9700994,149.048769 56.2231728,149.744465 59.4761904,149.271656 L123.956015,149.271656 L129.358379,147.180419 C131.042132,146.435865 132.287785,145.165536 132.495235,142.649404 C132.750087,140.879938 132.606768,139.242979 131.972705,137.76985 C131.995011,133.617555 127.557851,130.101978 125.350452,126.268043 C130.378959,123.312923 135.647372,120.726392 139.799789,116.019094 L155.150588,102.567351 L165.781045,91.9368929 L170.6606,84.4432917 L173.274647,78.169579 L174.524705,72.2293322 L174.668582,68.4104704 L174.668582,66.6677724 L174.89109,62.3439965 C175.355623,61.4071332 175.598263,58.1886517 176.062963,56.3858544 C176.437155,54.2946168 175.198028,52.2033792 174.145996,50.1121417 L172.054312,47.1495551 L167.114474,44.9170168 L162.643743,42.095731 L161.045145,39.1661135 C161.395358,37.5109799 159.008057,34.7824 158.286998,32.8594318 C157.514969,30.8045483 155.074746,27.7487651 152.884634,24.8430211 L149.227813,22.3552013 L141.731367,19.9634668 L135.980464,18.5693084 L129.358212,15.4324521 L123.607308,10.2043582 C122.595986,8.57783823 118.872133,6.95132385 115.939437,5.32480388 L111.931232,3.93064551 L105.30898,3.93064551 L95.8984107,6.19615287 L91.8902054,6.54469246 L85.2349952,6.51179032 L78.1228914,4.80206141 L71.1520995,3.93064551 Z" id="path3192" stroke="#F9F9F9" fill="#F9F9F9"></path>
                <g id="g3974" transform="translate(16.729900, 16.729900)" fill="#4DC4D5" stroke="#4DC4D5">
                    <polygon id="path3964" points="12.0436323 32.1106014 10.8646205 33.2895854 9.60703383 34.6257691 8.58528304 35.4903592 7.32769642 36.433552 5.83432973 37.2195394 4.49811258 37.9269298 47.8848231 81.9424113"></polygon>
                    <polygon id="path3966" points="42.6972713 7.82348702 41.4396847 8.84527685 40.2606729 9.86706667 39.0030862 10.6530541 37.8241301 11.3604445 37.4309775 11.4390193 36.644951 11.7534299 35.2302148 12.6966171 33.8939977 13.0110276 61.403698 79.1914413"></polygon>
                    <polygon id="path3968" points="71.307353 0.828169111 72.8792945 1.29978501 73.9796758 1.37835977 74.844277 1.37835977 76.3376437 1.29978501 77.7524356 1.37835977 79.2458581 1.29978501 80.0318288 1.22121024 81.0536354 0.985430176 81.446788 0.985430176 76.1806615 81.3136794"></polygon>
                    <polygon id="path3970" points="109.899497 7.82348702 111.314233 9.00247657 112.41467 9.94566375 113.750832 10.7316512 115.008418 11.2032671 115.32294 11.3604724 116.187486 12.1464654 117.287923 12.6180813 118.702659 13.2468746 91.0358093 79.5058909"></polygon>
                    <polygon id="path3972" points="140.710286 32.0320044 141.810723 33.2109883 142.832474 34.547172 144.483046 35.8047587 146.290823 36.9051456 148.0986 37.8483327 104.397535 82.3354079"></polygon>
                </g>
            </g>
        </g>
    </g>
</svg>