<?xml version="1.0" encoding="UTF-8"?>
<svg width="232px" height="231px" viewBox="0 0 232 231" version="1.1" xmlns="http://www.w3.org/2000/svg" xmlns:xlink="http://www.w3.org/1999/xlink">
    <!-- Generator: Sketch 51.3 (57544) - http://www.bohemiancoding.com/sketch -->
    <title>gluten</title>
    <desc>Created with Sketch.</desc>
    <defs></defs>
    <g id="Page-1" stroke="none" stroke-width="1" fill="none" fill-rule="evenodd" stroke-linecap="round" stroke-linejoin="round">
        <g id="gluten" transform="translate(9.000000, 3.000000)" fill-rule="nonzero">
            <path d="M213.611642,112.233374 C213.611642,171.072932 165.912757,218.771819 107.073199,218.771819 C48.2336422,218.771819 0.534752846,171.072932 0.534752846,112.233374 C0.534752846,53.3938106 48.2336422,5.69492342 107.073199,5.69492342 C165.912757,5.69492342 213.611642,53.3938106 213.611642,112.233374 Z" id="path3230" stroke="#F47039" stroke-width="17.2396645" fill="#F47039"></path>
            <g id="g4023" transform="translate(33.459801, 0.000000)" fill="#FFFFFF" stroke="#FFFFFF" stroke-width="0.5">
                <path d="M35.5446645,221.201032 L43.4130992,208.443268 L51.5282664,196.748911 L49.770651,195.694342 L48.3645642,194.112491 L46.9584774,190.069989 L47.2070279,184.445631 L50.473686,174.427248 L54.5161932,166.693756 L58.3829361,161.069403 L59.0859822,165.814951 L59.4375332,174.954529 L59.1783313,181.809216 L58.5587562,188.312373 L63.1285452,183.391067 L68.752898,177.942467 L71.7408359,174.954529 L70.1589903,172.493873 L69.8909216,169.52726 L70.5104967,166.342239 L71.524245,163.943723 L73.8499577,158.960271 L78.0682292,153.160153 L80.7046441,150.172215 L83.5837261,147.004587 L87.0636179,138.864124 L90.294948,129.480842 L89.0521283,134.638536 L87.1257583,141.039056 L84.8886862,147.37743 L83.708007,156.139308 L82.5273277,162.477676 L81.1602271,167.386815 L91.9106103,159.929902 L90.729931,158.376375 L90.2949536,156.263583 L90.6678073,152.970113 L92.7184581,148.62025 L98.497568,141.846887 L103.717403,137.186316 L105.457352,135.881356 L109.558653,128.921572 L112.914264,122.08607 L110.366484,128.300163 L107.942991,133.147155 L106.203042,136.502766 L104.52524,143.835398 L102.412448,149.92521 L100.05109,155.269331 L111.360742,149.98735 L110.180063,148.06098 L109.993636,145.699627 L111.422877,142.157589 L113.287107,139.485529 L117.201982,135.508513 L120.992581,132.712166 L124.410332,130.537235 L125.156023,129.977965 L127.765943,126.498073 L130.500145,122.70748 L132.115807,120.346121 L133.482907,117.984768 L131.245835,122.272491 L128.449494,126.746641 L125.963854,130.475094 L123.788923,136.192064 L121.551851,141.349758 L119.190492,145.388919 L117.450549,147.750278 L123.686614,145.732903 L131.618683,143.462549 L132.510627,143.283651 L133.033492,143.213943 L133.110059,143.08964 L132.452251,141.71123 C132.453121,141.517219 132.402061,141.292871 132.395927,141.116705 C132.376966,140.586367 132.405965,140.138201 132.620498,139.427091 C133.151003,138.050533 133.819502,137.010173 135.043997,135.928997 C136.336961,134.79519 137.599232,133.569306 139.00281,132.767347 L141.948533,130.895584 L142.7821,130.398482 L145.289711,127.243725 L146.656812,125.441642 L147.71321,123.888114 L145.600413,127.243725 L142.928353,130.972184 L142.182662,131.966437 L140.479117,135.384188 L139.166618,137.968367 L137.39781,140.79045 L135.441287,142.797809 L138.907399,142.081005 L143.18069,141.375489 L147.147042,140.882124 L152.976983,140.231231 L147.632862,141.039062 C143.646054,141.43807 139.983193,142.430989 136.341417,143.462555 L140.318438,144.518953 L143.736189,146.010335 L145.538273,146.756026 L149.080311,147.315295 L154.051584,148.495974 L148.458901,147.439576 L145.662554,147.253149 L142.182662,147.936699 L136.962827,148.495969 L133.545076,148.123115 L131.742987,147.315284 L130.438026,145.886043 L130.189476,145.264633 C127.278975,145.78036 124.5222,146.987785 121.720103,147.991295 L115.524212,150.670895 L117.761284,150.981569 L123.105406,152.100108 L126.523157,153.218647 L131.618717,154.896449 L133.793648,155.082876 L138.827062,155.766427 L142.928364,156.574258 L146.035413,157.382089 L140.691292,156.512117 L134.66362,155.890707 L131.43229,155.828584 L127.952398,157.133544 L122.483996,158.314218 L116.767032,158.997768 L112.976433,158.749217 L110.490793,158.003527 L108.564429,156.574286 L107.321609,154.772196 L102.101769,157.568538 L96.9440685,160.799868 L100.921089,160.861992 L106.700199,161.731963 L111.795753,162.664081 L116.207763,163.782614 L119.936216,163.658311 L123.478254,163.720435 L127.952398,164.093288 L130.189476,164.217592 L132.364408,164.528322 L125.901747,164.341895 L115.648493,164.963305 L112.355023,166.206124 L109.37226,167.511084 L102.536757,169.561735 L97.4411975,170.245285 L93.8991653,170.058859 L91.5378067,169.499589 L89.860004,168.443191 L88.4307631,166.889669 C84.5976919,168.306474 82.3760671,171.155671 79.9795925,173.849453 L84.0187537,173.538778 L88.4307631,173.476655 L92.6563456,173.663081 L97.0062145,174.035935 L99.4297079,174.533036 L102.598898,174.035935 L106.327351,173.600958 L110.117951,173.228104 L113.411421,172.979553 L118.196273,172.91743 L113.28714,173.414587 L105.705941,174.47098 L100.299679,175.651659 L95.6391084,178.510141 L89.7357232,181.430769 L85.199433,183.232852 L80.4767215,184.537812 L75.8161504,184.786363 L73.330511,184.227093 L71.7148488,183.543543 L70.7205964,182.797853 C66.8524538,185.951634 64.064901,190.186011 60.9644657,194.107499 L64.9414864,193.113247 L69.9749057,192.118989 L74.6976172,191.435439 L78.177509,191.062585 L81.346693,190.751855 L84.2051806,189.757603 L88.6793248,188.204081 L93.0913341,186.961261 L97.2547762,185.904863 L100.921089,185.034891 L96.1362374,186.588413 L91.2271046,188.204081 L86.131545,190.192586 L82.0302433,191.994675 L80.7252832,192.678225 L74.5733307,197.960206 L69.9749057,201.564379 L64.5064979,204.733568 L60.6537635,206.535657 L57.857422,207.219208 L54.936794,207.467758 L53.2589914,207.157084 L52.0161717,206.722107 C47.7882693,212.036761 45.1816727,217.67568 42.5707487,223.313734 L35.5446645,221.201032 Z" id="path3243"></path>
                <polygon id="path4021" points="6.13795512 206.899114 12.0698927 210.634037 14.0911435 199.780787 16.7715022 188.400256 19.8912606 175.877278 20.8140094 176.228773 23.2746655 176.975758 26.3944238 177.019813 28.5475007 176.624374 30.7445103 175.87739 32.6778845 174.82282 35.4461198 173.153093 38.6977042 170.428796 41.6856421 167.352976 44.5856979 164.145335 46.6069543 161.377094 48.7160873 158.433095 51.7919073 153.643609 54.9995479 148.326835 56.8450399 144.94343 58.1632446 142.350954 66.3361411 134.968985 71.3892682 130.926484 77.1893853 126.400633 80.5288519 124.027859 77.8924314 125.653648 73.2787041 128.68553 67.1270639 132.859852 62.1178696 136.770539 58.9102291 139.275133 57.6359627 140.505461 56.581399 141.252446 55.7904707 142.043374 50.6494615 144.37221 45.8599698 146.70104 41.0265398 149.161696 36.5885712 151.622352 31.8869617 154.566352 28.3717364 156.895187 24.4171113 160.102828 30.3929872 142.350954 30.876314 142.350954 33.2051496 143.273702 34.9627595 143.537366 38.8295079 143.141927 42.520492 141.604014 45.8599531 139.36306 49.1115319 136.550881 53.1100952 132.068974 58.3829305 124.73095 61.2390479 120.161155 62.9966634 117.348982 64.8860937 113.74588 72.3998824 106.803311 76.6181484 103.288091 80.6606556 100.080451 84.5273985 97.2243334 85.9774291 96.213708 82.9455473 98.1031383 77.5848355 101.618358 73.5862666 104.430537 69.3240623 107.506357 65.6770165 110.494295 63.9194066 111.988264 58.4268743 114.404982 53.1540391 116.909576 49.2433524 118.974771 46.123594 120.688443 40.7628766 123.98396 36.456734 127.103724 36.3688463 126.620397 42.2129017 113.130732 44.3220347 114.097414 47.3099726 114.580741 51.5721824 113.614054 54.6919408 112.120085 57.2844173 110.142772 59.8768939 107.813937 62.7769552 104.825999 65.8088314 100.959256 68.5770723 97.1803895 71.2574254 93.1818262 73.8499019 88.7877959 78.5515115 84.7013504 82.8576596 81.3179511 86.3728849 78.7254745 88.6577767 77.1436234 90.7229714 75.8693571 93.2715096 74.1117472 90.4153921 75.7375366 87.2077516 77.6709053 84.000111 79.6482178 80.265183 81.9770534 76.0469171 85.0968173 72.8392765 87.4256474 64.9300265 90.6332879 59.1738533 93.2697083 53.4616128 96.3015846 48.6281828 99.4652868 56.5374328 84.3498273 57.7238226 85.3165144 59.7890173 86.1074428 61.8981502 86.2832182 64.3148624 85.8877792 67.2588621 84.5256307 70.861964 81.9770924 75.6075174 76.8360832 79.8257834 70.8162635 82.5061421 66.3343566 84.5713312 62.7312491 87.9547361 59.5675524 92.1290581 56.1402092 94.9851812 53.9431941 97.3579551 52.1416459 100.609534 49.9446308 97.7094782 51.7022407 94.4139555 53.6795532 91.557838 55.6568657 87.339572 58.6448036 84.6592133 60.7539366 83.1213061 62.0282085 78.1121118 64.2252181 73.3226201 66.4661771 68.137667 69.4101711 64.8860882 71.4753658 63.2163549 72.7056939 71.6089485 59.655429 72.4438151 60.4024191 74.0256663 61.4130445 76.3545019 61.7205958 78.7712141 61.4130445 81.4076345 60.4024191 85.2304391 57.7659987 88.9653615 54.1628967 91.1184327 51.6583024 94.7215347 46.912749 96.7867294 43.7051084 97.1821684 43.2217816 99.4670658 41.2884129 103.026229 38.783813 106.23387 36.5868034 108.694526 35.0049523 110.759715 33.5988599 112.121864 32.8079372 110.100613 33.7746243 106.892972 35.3564754 104.124737 36.8943827 101.312558 38.6519925 99.2913014 40.0580849 97.9730968 40.9368899 96.2154869 42.123274 92.4366206 43.4414842 87.6910728 45.3309146 83.4728013 47.352171 80.0015198 49.197663 77.6726842 50.6476937 89.4486827 35.0488906 91.0744721 33.1594602 87.998652 34.9610084 76.8817614 48.0552171 76.9696492 42.5626793 76.0469004 37.289844 74.772634 32.5003579 73.5862443 28.3699686 71.6968139 23.316836 71.1255882 17.2530779 70.7301491 13.7817965 69.8074059 8.90442262 69.0604214 5.34526232 69.4558605 8.46502294 69.9391873 12.5075301 70.2028505 16.9015549 70.4665138 22.9213746 69.2361857 26.2168973 68.3573808 30.3912194 67.2149349 35.9276955 66.7316081 40.2338437 66.8194959 44.8915149 67.8301268 48.6264373 69.3240958 51.0870934 70.9498852 52.537124 72.3999159 53.152288 73.0590182 53.4159513 61.4148457 69.8496154 61.0632948 64.3570831 59.9647872 59.5675915 58.8223413 55.3932638 57.1965519 51.131054 55.3949981 46.6052088 53.9010292 43.1778656 53.1540447 41.7278349 52.2752397 36.3671231 51.3964348 32.1927954 50.5615682 28.457873 49.7267015 25.1623503 48.5403118 21.383484 49.4191223 25.118412 50.2539834 29.8639598 51.08885 35.4443743 51.5721768 41.4202557 51.6600646 42.342999 50.561557 47.2643111 49.7706286 51.6143975 49.067588 57.4584585 49.067588 65.0601237 49.6388082 68.5753491 51.0009567 72.2663332 53.1540335 75.0345685 54.6919408 75.8694351 55.7904484 76.4845992 56.5813767 76.6603747 57.1525969 76.7482624 47.4417986 93.3576853 47.0903034 89.3151837 46.2993751 85.4044969 44.8932883 79.955903 43.3114371 74.9027703 41.6856477 70.4648018 40.3234992 66.949582 39.1810533 64.2252794 38.4340689 57.8539422 37.6431405 53.3280914 36.8082739 49.0658872 35.7537102 44.4960981 34.5233821 39.8384269 35.2703666 44.0566929 36.1491715 49.4613486 36.6324984 54.2068964 37.0718813 59.4797316 37.3355446 63.1267774 36.1052165 67.6086843 34.8748885 72.8815195 34.0839601 77.1437238 33.3809195 83.2074818 33.205144 87.865153 33.644527 92.4788804 34.5672702 96.1259262 36.4567061 99.641146 38.214316 101.486638 39.8840438 102.497263 41.1143718 102.98059 42.2128794 103.332085 35.5778956 116.909632 33.6005831 109.04432 30.8762861 101.398717 28.9429175 96.6092251 26.9216611 91.9954922 25.9549795 89.8863592 25.5594847 89.0954364 24.6367415 83.7786629 23.010952 76.1330538 22.1321471 72.4420697 21.3412187 69.3662496 20.5942343 66.8177113 19.8472498 64.3570608 19.363923 62.6433892 20.3306101 66.9495374 21.6488203 73.0132954 22.5715635 78.681592 23.1867275 83.1634989 23.7579532 88.3045081 22.7912661 92.1712565 21.7366969 97.751671 20.7700153 103.551788 20.1987896 110.054951 20.1987896 116.865694 20.8139536 121.435483 22.3079226 126.664374 23.6700711 129.037148 25.2079783 130.926584 26.658009 132.06903 27.8004549 132.772076 28.5913832 133.167515 23.8458298 145.295031 22.5715635 139.846437 20.594251 133.519038 18.6608768 128.246203 16.5956877 123.017312 13.7835085 116.953554 12.1577191 113.526211 11.3228524 108.912478 10.1804054 103.639648 9.25765941 99.641079 7.89551091 94.5440081 6.22577985 88.9196498 4.90757188 84.8332043 6.09395939 89.3151168 7.6758094 96.4334385 8.99401793 103.551766 9.9167634 110.670093 10.2682865 113.701969 9.08189898 119.458148 8.02733194 124.994624 7.06064594 132.244766 6.62124068 139.890376 6.88488161 145.119272 7.28034299 148.942077 8.33490948 153.380046 10.0485805 157.334671 11.8501287 159.839265 14.3107848 162.03628 16.6835587 162.959023 17.6502458 163.310519 14.3986669 174.339527 11.3228468 185.017018 8.554611 196.441488"></polygon>
            </g>
        </g>
    </g>
</svg>