<?xml version="1.0" encoding="UTF-8"?>
<svg width="231px" height="231px" viewBox="0 0 231 231" version="1.1" xmlns="http://www.w3.org/2000/svg" xmlns:xlink="http://www.w3.org/1999/xlink">
    <!-- Generator: Sketch 51.3 (57544) - http://www.bohemiancoding.com/sketch -->
    <title>g5591</title>
    <desc>Created with Sketch.</desc>
    <defs></defs>
    <g id="Page-1" stroke="none" stroke-width="1" fill="none" fill-rule="evenodd">
        <g id="g5591" transform="translate(4.153263, 7.000000)" fill-rule="nonzero">
            <path d="M218.020744,108.245735 C218.020744,167.085293 170.321859,214.78418 111.482302,214.78418 C52.6427444,214.78418 4.94385511,167.085293 4.94385511,108.245735 C4.94385511,49.4061718 52.6427444,1.70728466 111.482302,1.70728466 C170.321859,1.70728466 218.020744,49.4061718 218.020744,108.245735 Z" id="path3230-2-55" stroke="#DA4752" stroke-width="17.2396645" fill="#DA4752" stroke-linecap="round" stroke-linejoin="round"></path>
            <g id="g4083" transform="translate(49.172747, 34.090239)" stroke-width="0.5">
                <g id="g4111" transform="translate(44.613068, 0.000000)">
                    <path d="M17.9387473,1.36954869 L13.8949073,13.5521507 C11.1198072,23.7406768 9.26161715,34.846074 7.27616833,45.8242682 C6.77148299,49.7871188 6.5407219,53.6587858 5.26724187,57.8779719 L3.5931365,66.9182525 L3.2066758,73.4858593 L2.6399783,83.1698507 L2.5897886,97.0525173 L3.98021063,110.522552 L5.60323404,121.159925 L8.95150056,134.218108 L12.6345882,142.923562 L13.6397763,145.319976 L15.6479778,146.941471 L13.9738725,137.566364 L9.62114271,124.508186 L6.27287619,111.450002 L4.85657858,102.255661 L4.34073998,86.0292249 C4.26043646,80.2518828 4.73779629,75.8694128 5.19117659,71.4258174 L6.42746047,59.5780365 L9.95574072,42.810845 L13.6388283,30.087488 L16.5752605,21.5109324 C18.4725427,17.9825574 20.0273639,14.5027102 21.6487143,11.5180402 C20.2729588,14.6707397 19.0940027,18.4138598 17.9915581,22.3865085 C17.2235441,25.4132152 16.4804019,28.4647211 15.9825758,31.7616157 L13.484021,46.4679846 L11.9128045,59.5002369 L10.8053966,68.5923801 L9.28609857,77.2978341 L8.66831911,85.6684669 L8.97726461,95.3524583 L9.2862101,103.749022 L9.95585225,112.454476 L11.2951366,122.16441 L13.6389398,131.874339 L15.7248796,137.412304 L16.704248,140.039037 L19.1250088,135.970041 L22.6792204,135.222588 L26.8519364,137.669325 L33.0587853,142.743576 L38.7507993,145.267343 L42.4338869,145.267343 L40.0901394,141.24944 C39.6953137,138.227368 38.9096219,135.205301 39.2656341,132.183228 C39.6961502,125.780149 40.1990511,119.449599 41.1716159,113.588619 L42.4338869,125.51266 L43.1035291,134.887767 L44.4428691,145.60217 C47.1601954,144.748042 50.0110819,144.027462 52.4786307,142.923568 L59.2270265,139.652348 C61.0121068,135.508898 63.3899276,131.602545 63.9145773,126.954922 L65.2019989,122.499231 C65.9772067,124.43782 66.2541423,126.708575 66.2064621,129.195736 L66.4122399,133.137379 L66.2064621,135.892242 L71.5637108,131.204685 C73.6811586,128.77286 74.831395,126.72792 75.5815638,124.843012 C77.1250644,121.756981 77.7513761,118.900262 78.2091062,116.08569 C79.0897124,112.381969 79.5685221,108.276446 79.6254038,103.749022 L79.2645956,86.3381146 C78.561159,80.5517662 77.718697,74.7654234 76.2001239,68.9790751 C75.0352767,64.1206952 73.03979,58.9854523 71.0739709,53.8600744 C68.7710443,49.9108141 66.5816022,45.9615593 63.218948,42.012299 C59.9034721,37.6397443 56.021466,33.3616132 51.0622773,29.2630051 L44.7776345,24.7302839 L39.5233861,21.4590642 L33.0587295,18.0337843 L26.3881836,13.3980962 L21.3398803,8.32385046 L19.3308981,4.97560067 L17.9387473,1.36954869 Z" id="path4080" stroke="#FEFEFE" fill="#FEFEFE"></path>
                    <g id="g4100" transform="translate(16.729901, 16.729900)" fill="#DA4752" stroke="#DA4752">
                        <polygon id="path4082" points="12.4988529 24.1920384 12.4988529 21.3090471 11.9841296 18.0141936 11.1604051 15.4400977 9.92484617 11.012641 7.96856314 6.68815136 7.24778326 4.31997818 6.42405873 2.67255699 6.21828095 6.07036632 6.21828095 8.74743481 6.52722645 11.733393 7.45389564 15.3371307 8.70194621 18.7349456 10.5427929 21.5149699"></polygon>
                        <polygon id="path4084" points="26.7051594 10.8585977 28.8893595 13.1884092 31.4376022 15.8822522 34.6410993 19.1585467 36.6068626 21.7067726 38.42702 23.9637812 39.9559656 26.1479757 41.776123 28.7690102 42.941026 31.1716302 44.0331539 33.5014361 45.052451 35.9040562 45.5621553 37.7242192 46.2174097 39.9084136 46.6540601 42.1654166 44.397085 38.8163192 39.7374173 32.8461761 36.8979629 28.9874302 34.2769451 25.3471042 31.8743083 21.7067726 29.4717273 17.6296067 27.505964 13.7708607"></polygon>
                        <polygon id="path4086" points="31.8744199 41.8741937 33.2577596 45.5145197 35.1507478 50.7565942 36.4612567 55.0521802 38.1358082 59.0565432 39.591923 63.1337092 41.1208686 66.6284237 42.2129965 68.7398152 41.6305171 63.4249321 40.9024318 56.2898917 40.2471774 52.2127257 38.9366685 48.6452027 37.5533288 45.5873282 36.1700449 44.2768082 33.4033655 42.3110337 32.6025051 42.0198219"></polygon>
                        <polygon id="path4088" points="17.0947239 41.8741937 17.02167 46.4610082 17.02167 51.2662371 17.3858241 55.9258602 18.1139094 62.2600291 18.6236137 65.5363236 19.424474 69.1038467 20.0068976 62.7696777 20.7349829 57.7460232 20.880533 54.2513087 20.8080368 50.9022057 20.4438826 47.8443312 19.8614033 45.4417111 18.7693311 43.5487452"></polygon>
                        <polygon id="path4090" points="8.35792369 76.2388871 7.41145745 73.4722412 6.68337218 69.4678781 6.02811775 65.5363236 5.44563838 61.7503806 5.08148421 59.5661861 4.49900484 56.3627002 3.84375041 53.5960487 3.11566514 55.1249887 2.3148048 57.8188317 1.8781544 60.3670576 1.8051005 62.4784492 1.8781544 65.2451007 2.53340883 68.5941981 3.6983118 71.4336582 5.08165151 73.5450441 6.31932955 75.0739841"></polygon>
                        <polygon id="path4092" points="30.0542625 88.5431992 30.7095169 86.4318076 31.1461673 84.6116447 31.4372676 82.2818331 31.6558716 80.3160587 31.7283678 78.0590501 31.5828177 76.1660842 31.2186635 73.6178526 30.7820131 70.5599782 29.9811528 66.9924551 29.1802925 65.0994836 28.4522072 67.3564866 28.0155568 70.1231382 27.6514026 73.6906612 27.6514026 78.4230872 28.088053 81.4809616 28.7433075 84.4660276 29.3257868 86.5046162"></polygon>
                        <polygon id="path4094" points="54.7357174 89.9265221 55.6094085 85.2669047 56.337438 76.8213386 56.118834 71.7976897 55.4635796 66.6284237 53.8618589 62.0416091 52.1144766 59.2021547 50.0759382 57.4547946 48.255725 56.7267317 49.4206837 59.0565432 50.36715 61.6775777 51.0951795 64.5898407 51.6776589 68.0845552 52.4057441 73.6178526 52.7698983 77.7678271 53.1340525 81.2625416 53.5707029 84.1748046 53.8618031 85.7037391"></polygon>
                        <polygon id="path4096" points="36.6796934 114.389524 38.0629774 112.714978 39.373542 110.749198 40.1744023 107.108872 40.3199525 103.322929 39.9557983 99.9010226 39.227713 95.3870167 38.7180087 92.7659766 38.3538546 91.3098451 37.4801634 93.6396566 36.9704591 96.9159511 36.5338087 100.847506 36.4607548 103.832577 36.4607548 106.599223 36.4607548 111.040426 36.4607548 114.025492 36.4607548 114.753561"></polygon>
                        <polygon id="path4098" points="3.5527059 85.5581276 4.06241021 88.7616192 4.71766464 92.0379136 6.02817351 95.3870167 7.77550009 99.7554056 9.3044457 102.740477 10.9062221 105.798352 12.1439002 108.128163 13.0175913 110.021135 13.6000707 111.404458 14.8377488 114.462332 11.6342516 111.040426 7.70272502 106.74484 4.86327054 102.303637 2.6790705 98.5176941 1.5869426 93.3484281 1.65999649 91.1642336 2.02415066 88.8344221 2.825011 86.7958391"></polygon>
                    </g>
                </g>
                <path d="M55.5404813,146.343951 L50.1110152,138.776231 L47.01208,131.809371 C44.4845824,126.346757 43.4758809,120.377886 42.4473824,114.415594 C40.3652905,103.068115 39.7583297,91.7206367 39.179977,80.3731578 L40.3091338,64.1569155 C40.8534132,58.0866551 42.0390055,52.1446796 43.8647396,46.3307213 L48.6216079,31.3877192 L54.9158426,14.7628434 L56.2852407,10.0301497 L51.6006455,13.369304 L43.8647396,18.2222913 L34.7594354,23.5556386 C31.0805861,25.3872058 28.1196168,27.757169 25.4620721,30.354659 C21.3379285,34.4627864 18.5152597,38.5709194 15.6362111,42.6790469 C12.7564934,48.1470197 10.1045811,54.3588596 7.73216965,60.8415288 C6.20651425,65.6863853 4.90152625,70.5312473 3.88825194,75.3761038 C2.7960125,79.2442186 2.11070001,85.1469011 1.24565262,90.1510653 L0.380661003,104.445667 C0.664511648,107.352554 0.0421593493,110.259441 1.46185871,113.166328 C1.60740884,115.448655 3.67935125,117.730975 4.96928235,120.013302 L11.0715136,126.59591 L13.7142802,129.022688 L10.7591663,123.785041 L10.0864012,119.244368 L10.578818,116.518381 C13.2958096,120.057586 14.8703163,123.482542 16.9335034,126.956361 L21.3780803,133.466835 L26.999773,139.088523 C30.2547982,140.865344 33.6037339,143.017534 36.3692422,142.83631 L40.429366,143.41299 C39.5077158,140.017339 37.8478308,136.045013 39.0840032,132.649362 L44.489434,140.962416 L46.9637863,138.65591 C48.4380809,140.273501 49.780767,142.948339 52.4172878,144.565931 C52.6877545,145.030186 53.7322022,145.623389 55.5407044,146.343951 L55.5404813,146.343951 Z" id="path3303" stroke="#FEFEFE" fill="#FEFEFE"></path>
                <path d="M32.9558406,36.5670845 L34.796297,33.891254 L36.7185626,30.5273004 L39.6980463,26.0099875 C40.5822215,25.0134988 41.3319441,23.8153703 42.4853035,23.222708 L39.6980463,23.6071611 C38.6435607,23.8231441 37.6934139,24.2606812 36.87192,24.7748245 C35.8294799,25.4428494 35.4706235,26.1108688 34.9885235,26.7788881 L33.5467965,29.4700543 L32.1051252,32.4495604 L29.9906331,34.8523812 L27.6839144,37.2552076 L26.9150082,39.3696941 L26.8190901,41.0997276 L28.4529879,40.4269402 L30.4713389,39.0813543 L31.7208394,37.735774 L32.9558406,36.5670845 Z" id="path4073" stroke="#DA4752" fill="#DA4752"></path>
                <path d="M32.5713875,79.4651648 L32.9701168,69.3569533 L34.0273908,59.1689737 L34.6040704,54.2672132 L35.6612886,48.40432 L36.8422523,43.7111256 C35.3165411,44.550816 34.6157814,45.8619383 33.5467965,46.9626208 L31.2410816,52.4277718 L30.278945,58.0156199 L29.9906331,63.3018335 L30.4713389,68.7802737 L31.0480185,73.2014733 L32.4787596,79.0843309 L32.5713875,79.4651648 Z" id="path4075" stroke="#DA4752" fill="#DA4752"></path>
                <path d="M19.3353594,75.1257688 C19.8718316,73.5903877 20.2903022,72.112552 20.3926334,70.428509 C20.5844696,68.4401102 20.8928574,66.5292878 20.6681191,64.2629663 L20.6681191,59.6495401 L19.8030717,54.2672132 L18.7458535,51.6721603 L16.9197291,58.1117332 L16.823811,63.3979468 C16.6079953,64.9357537 16.9247481,66.4735661 17.2080411,68.011373 L17.6887469,70.5103071 L18.8411024,73.8333672 L19.3353594,75.1257688 Z" id="path4077" stroke="#DA4752" fill="#DA4752"></path>
                <path d="M9.28342179,72.6963586 L9.13396801,76.4693136 L9.03804991,88.3873322 L9.51875572,95.8841457 L10.1915766,102.035379 L10.891946,108.914613 L8.46153754,103.861525 C7.34537435,101.106284 6.54284102,98.3510476 5.86650691,95.5958058 L5.19368608,89.1562329 L5.19368608,85.2155996 C5.3470435,83.1693934 5.56508987,81.1339445 6.15481886,79.1604798 C6.53960657,77.6867485 7.13190082,76.2130115 7.88485787,74.7392802 C8.15755525,73.9615071 8.72414121,73.330801 9.28342179,72.6963586 Z" id="path4079" stroke="#DA4752" fill="#DA4752"></path>
                <path d="M21.9171177,90.6715269 C22.6033224,92.6654522 22.9192387,94.289156 23.2474236,95.9250447 L24.0317771,101.458699 L25.0890511,108.090499 L25.8181959,110.603742 L27.395937,114.145618 L27.9726167,115.875652 L28.4533225,117.990138 L28.3707883,120.830591 L27.3145739,120.172108 L26.4781347,119.115888 L25.8870115,117.274411 C25.8156306,116.320712 24.7990661,115.26201 24.1283644,114.241732 L21.6294192,111.358339 L20.4760598,108.859399 L19.995354,104.630426 L19.995354,101.554812 L21.4370811,92.4240732 L21.6300326,90.1603002 L21.9171177,90.6715269 Z" id="path4081" stroke="#DA4752" fill="#DA4752"></path>
            </g>
        </g>
    </g>
</svg>