<?xml version="1.0" encoding="UTF-8"?>
<svg width="171px" height="170px" viewBox="0 0 171 170" version="1.1" xmlns="http://www.w3.org/2000/svg" xmlns:xlink="http://www.w3.org/1999/xlink">
    <!-- Generator: Sketch 51.3 (57544) - http://www.bohemiancoding.com/sketch -->
    <title>g3276</title>
    <desc>Created with Sketch.</desc>
    <defs></defs>
    <g id="Page-1" stroke="none" stroke-width="1" fill="none" fill-rule="evenodd">
        <g id="g3276" transform="translate(7.000000, 6.000000)">
            <path d="M156.851261,78.8218636 C156.851261,122.112988 121.756871,157.207379 78.4657474,157.207379 C35.1746233,157.207379 0.0802304734,122.112988 0.0802304734,78.8218636 C0.0802304734,35.530735 35.1746233,0.436343737 78.4657474,0.436343737 C121.756871,0.436343737 156.851261,35.530735 156.851261,78.8218636 Z" id="path3230-2-9" stroke="#82104E" stroke-width="12.6840596" fill="#82104E" fill-rule="nonzero" stroke-linecap="round" stroke-linejoin="round"></path>
            <g id="g4196" transform="translate(25.930167, 15.142050)">
                <g id="g4054" transform="translate(22.000000, 0.000000)" fill="#FFFFFF" font-family="Helvetica-Bold, Helvetica" font-size="33" font-weight="bold">
                    <text id="tspan4063">
                        <tspan x="0" y="32">E</tspan>
                    </text>
                    <text id="tspan4063-7">
                        <tspan x="25" y="32">-</tspan>
                    </text>
                    <text id="tspan4063-8">
                        <tspan x="38" y="32">X</tspan>
                    </text>
                </g>
                <polygon id="path4062" stroke="#FFFFFF" stroke-width="0.5" fill="#FFFFFF" fill-rule="nonzero" stroke-linecap="round" stroke-linejoin="round" points="77.6649488 117.964159 77.5869918 112.792984 102.328413 98.093016 102.016175 67.5785787 77.4307906 53.6587187 77.364322 48.0083249 73.5973572 47.9972468 73.5973572 53.5362195 52.3553851 65.9180862 30.7233817 53.3913507 30.8124168 48.097561 27.2126904 48.0306821 27.2126904 53.3244677 2.66066361 67.4003115 2.44894878 98.4831211 27.19037 112.804189 27.178061 117.852792 30.9115863 117.986508 30.8787623 112.759581 52.0315763 100.299741 73.5855816 112.581302 73.4296676 118.064519"></polygon>
                <polygon id="path4074" stroke="#82104E" stroke-width="0.5" fill="#82104E" fill-rule="nonzero" points="29.2028508 60.1428873 48.9100955 71.5437799 48.9642552 94.3365098 28.9675026 106.280303 8.95257385 94.7346321 9.04283986 71.2994873"></polygon>
                <polygon id="path3266" stroke="#FFFFFF" stroke-width="0.5" fill="#FFFFFF" fill-rule="nonzero" points="12.8014755 72.7074032 14.7561039 75.9994456 29.9818464 67.1520759 28.1476411 63.9026636"></polygon>
                <polygon id="path4074-5" stroke="#82104E" stroke-width="0.5" fill="#82104E" fill-rule="nonzero" points="76.0843089 58.9130129 95.7915537 70.3139055 95.8457133 93.1066354 75.8489608 105.050429 55.834032 93.5047577 55.924298 70.0696129"></polygon>
                <polygon id="path3266-0" stroke="#FFFFFF" stroke-width="0.5" fill="#FFFFFF" fill-rule="nonzero" points="59.3530934 72.669196 61.3077219 75.9612385 76.5334644 67.1138687 74.699259 63.8644565"></polygon>
                <polygon id="path4054" stroke="#FFFFFF" stroke-width="0.5" fill="#FFFFFF" fill-rule="nonzero" points="88.8963382 74.2780687 92.5340175 74.3508149 92.4613944 92.7574988 76.3828432 102.288231 74.5639831 98.9415616 88.8237151 90.8659007"></polygon>
                <polygon id="path4054-2" stroke="#FFFFFF" stroke-width="0.5" fill="#FFFFFF" fill-rule="nonzero" points="42.1520434 74.2416956 46.1534947 74.3144418 46.0808716 92.7211257 30.0023204 102.251858 27.8924345 99.1234477 42.1521665 90.9750364"></polygon>
                <path d="M12.046774,70.2865163 C12.046774,73.4077052 9.51632482,75.9379346 6.39484336,75.9379346 C3.2733619,75.9379346 0.742912695,73.4077052 0.742912695,70.2865163 C0.742912695,67.165323 3.2733619,64.635098 6.39484336,64.635098 C9.51632482,64.635098 12.046774,67.165323 12.046774,70.2865163 Z" id="path4064" stroke="#82104E" stroke-width="3.28289715" fill="#FFFFFF" fill-rule="nonzero" stroke-linecap="round" stroke-linejoin="round"></path>
                <path d="M11.786421,95.8616143 C11.786421,98.9828032 9.25597179,101.513033 6.13449033,101.513033 C3.01300888,101.513033 0.482559671,98.9828032 0.482559671,95.8616143 C0.482559671,92.7404211 3.01300888,90.210196 6.13449033,90.210196 C9.25597179,90.210196 11.786421,92.7404211 11.786421,95.8616143 Z" id="path4064-8" stroke="#82104E" stroke-width="3.28289715" fill="#FFFFFF" fill-rule="nonzero" stroke-linecap="round" stroke-linejoin="round"></path>
                <path d="M58.0201118,97.1090659 C58.0201118,100.230255 55.4896626,102.760484 52.3681811,102.760484 C49.2466997,102.760484 46.7162504,100.230255 46.7162504,97.1090659 C46.7162504,93.9878727 49.2466997,91.4576476 52.3681811,91.4576476 C55.4896626,91.4576476 58.0201118,93.9878727 58.0201118,97.1090659 Z" id="path4064-2" stroke="#82104E" stroke-width="3.28289715" fill="#FFFFFF" fill-rule="nonzero" stroke-linecap="round" stroke-linejoin="round"></path>
                <path d="M104.588595,96.5688062 C104.588595,99.6899952 102.058146,102.220225 98.9366648,102.220225 C95.8151834,102.220225 93.2847342,99.6899952 93.2847342,96.5688062 C93.2847342,93.447613 95.8151834,90.9173879 98.9366648,90.9173879 C102.058146,90.9173879 104.588595,93.447613 104.588595,96.5688062 Z" id="path4064-0" stroke="#82104E" stroke-width="3.28289715" fill="#FFFFFF" fill-rule="nonzero" stroke-linecap="round" stroke-linejoin="round"></path>
            </g>
        </g>
    </g>
</svg>