<?xml version="1.0" encoding="UTF-8"?>
<svg width="231px" height="231px" viewBox="0 0 231 231" version="1.1" xmlns="http://www.w3.org/2000/svg" xmlns:xlink="http://www.w3.org/1999/xlink">
    <!-- Generator: Sketch 51.3 (57544) - http://www.bohemiancoding.com/sketch -->
    <title>g5075</title>
    <desc>Created with Sketch.</desc>
    <defs></defs>
    <g id="Page-1" stroke="none" stroke-width="1" fill="none" fill-rule="evenodd" stroke-linecap="round" stroke-linejoin="round">
        <g id="g5075" transform="translate(1.000000, -2.000000)" fill-rule="nonzero">
            <path d="M228.294554,117.593206 C228.294554,180.514218 177.287001,231.521777 114.365996,231.521777 C51.4449905,231.521777 0.437433484,180.514218 0.437433484,117.593206 C0.437433484,54.672189 51.4449905,3.66462993 114.365996,3.66462993 C177.287001,3.66462993 228.294554,54.672189 228.294554,117.593206 Z" id="path3230-0-5-2" stroke="#C09328" stroke-width="2.7418448" fill="#C09328"></path>
            <g id="g5066" transform="translate(38.385827, 5.483690)" stroke-width="0.5">
                <polygon id="path4377" stroke-opacity="0" stroke="#000000" fill-opacity="0" fill="#000000" points="61.6220297 48.3218341 103.790451 90.4902555 157.591533 36.2044703 147.412928 26.0259199 134.083833 15.8473146 122.451173 9.06157772 114.453705 5.1840608 106.698616 3.24524751"></polygon>
                <g id="g4371" transform="translate(4.001832, 55.634608)">
                    <g id="g4365" transform="translate(0.000000, 43.869517)">
                        <path d="M137.434971,76.1547229 C136.806704,74.5552842 136.472912,72.8005583 135.549952,71.3779138 L132.808107,68.786015 L128.181244,65.7014396 L122.526189,63.4736907 L114.47202,61.2459418 L107.788774,60.0463847 L98.8777781,59.3609235 L93.3940885,59.7036541 L86.7108418,62.1027683 L79.1707686,64.8446131 L73.3443484,65.8728049 L64.0906222,66.0441702 L57.0646449,65.1873437 L49.695937,63.9877866 L42.4985944,62.9595948 L36.1580783,62.4454989 L28.6180051,61.5886724 L21.2492972,61.931403 L20.563836,59.8750194 L19.5356442,55.2481563 L20.0494659,51.8208503 L20.9062924,50.6212932 L26.0472514,47.3653525 L30.8454798,42.9098547 L33.0732287,39.653914 L33.2448682,35.1984162 L32.9021376,30.9142837 L32.2166764,27.8297083 L31.1884846,25.0878635 L31.1884846,22.3460187 L33.0735029,20.4610004 L36.1580783,19.2614433 L39.2426537,17.5477903 L41.6417679,15.1486761 L43.6981515,11.8927354 L44.7263433,8.46542937 L45.9259004,6.23768047 L45.5831698,4.35266217 L43.1840556,2.12491327 L40.9563067,2.12491327 L39.2426537,3.15310507 L37.8717313,6.06631517 L36.6721742,9.32225587 L35.3012518,11.5500048 L32.0453111,13.0922925 L28.2752745,14.6345802 L25.704795,17.376425 L23.991142,20.803731 L23.8195025,24.4024023 L24.8476943,28.6865348 L25.7045208,32.9706673 L26.389982,36.226608 L25.7045208,38.1116263 L22.6199454,40.5107405 L20.0494659,42.5671241 L17.1362558,44.6235077 L15.0798722,46.3371607 L13.3662192,49.4217361 L12.3380274,54.0485992 L12.680758,59.0181929 L13.3662192,61.7600377 L13.8800409,64.3305172 L9.93863903,65.8728049 L5.99723713,68.9573803 L3.94085353,72.0419557 L2.91266173,76.3260882 L4.11221883,80.9529513 L8.05362073,85.4084491 L14.0514062,90.8921387 L19.8778264,94.1480794 L27.2465343,96.8899242 L34.2725116,98.4322119 L45.4112561,99.631769 L57.4068271,100.31723 L71.2874164,101.516787 L83.625718,101.174057 L95.621289,100.145865 L105.046381,98.4322119 L113.786011,96.0330977 L122.868372,92.0916958 L129.722984,88.1502939 L134.692577,83.5234308 L137.091692,79.7533942 L137.455809,76.2404055" id="path4361" stroke="#FFFFFF" fill="#FFFFFF"></path>
                        <polygon id="path4363" stroke="#C09328" fill="#C09328" points="103.060298 90.0454954 107.664897 89.1972838 111.178955 88.2278936 115.72296 86.3497025 118.752259 84.7138575 121.054587 83.3203643 122.93275 81.9268655 125.053293 80.0486799 126.628538 77.8675533 127.900863 75.2623237 128.385622 73.1417864 128.44649 71.6877038 128.385622 71.0818329 129.294433 72.2935693 129.960866 73.9294142 130.203245 75.2623237 130.021735 76.8375793 129.719035 78.0493157 129.113143 79.2610521 128.204386 80.6545453 127.234979 81.8056924 125.47795 83.1386019 123.660381 84.5926844 121.721568 85.8650101 119.176916 87.5008495 117.601672 88.4096559 115.844643 89.1972838 113.905884 89.8031492 111.967126 90.4696039 110.149502 90.6513882 108.089554 90.7725778 106.029606 90.5907935 104.696686 90.4696039"></polygon>
                    </g>
                    <polygon id="path4369" stroke="#FEFEFE" fill="#FEFEFE" points="50.2286226 40.1872631 63.8000415 19.5877557 53.1367877 9.28799926 60.4072279 2.0175865 90.5794203 32.0686332 83.309035 39.339046 72.6457263 28.7969434 52.8944635 42.4895573"></polygon>
                </g>
                <path d="M61.8644087,48.079455 L104.517479,90.7325798 L160.499698,33.9021981 C156.572389,28.6710324 151.208025,24.3979221 145.35298,20.4519139 C143.429027,18.3248455 139.170175,15.8642043 135.05324,13.4238528 C131.810076,9.67065112 127.427347,7.49011679 121.118307,5.66876412 C119.535166,3.72764768 113.724813,3.0492056 107.668023,1.42767859 L61.8644087,48.079455 Z" id="path4406" stroke="#FFFFFF" fill="#FFFFFF"></path>
            </g>
        </g>
    </g>
</svg>