<?xml version="1.0" encoding="UTF-8"?>
<svg width="231px" height="231px" viewBox="0 0 231 231" version="1.1" xmlns="http://www.w3.org/2000/svg" xmlns:xlink="http://www.w3.org/1999/xlink">
    <!-- Generator: Sketch 51.3 (57544) - http://www.bohemiancoding.com/sketch -->
    <title>pescado</title>
    <desc>Created with Sketch.</desc>
    <defs></defs>
    <g id="Page-1" stroke="none" stroke-width="1" fill="none" fill-rule="evenodd">
        <g id="pescado" transform="translate(8.051501, 7.000000)" fill-rule="nonzero">
            <path d="M214.298732,108.234972 C214.298732,167.07453 166.599846,214.773417 107.760289,214.773417 C48.9207319,214.773417 1.22184261,167.07453 1.22184261,108.234972 C1.22184261,49.3954089 48.9207319,1.69652176 107.760289,1.69652176 C166.599846,1.69652176 214.298732,49.3954089 214.298732,108.234972 Z" id="path3230-2-8" stroke="#28429D" stroke-width="17.2396645" fill="#28429D" stroke-linecap="round" stroke-linejoin="round"></path>
            <g id="g4152" transform="translate(21.614825, 52.064510)">
                <path d="M4.23506278,65.7639395 L11.3476127,62.4210879 L2.96721515,55.6212812 C4.08928958,53.7801054 5.12107831,51.9389297 6.69469275,50.097754 C9.87839282,46.3492915 12.4501689,42.5625845 16.7823766,38.8858989 C20.28796,36.1296199 23.6524545,33.237087 27.8928151,31.3084919 C31.0684848,29.6790498 34.5665955,28.372071 38.1326853,27.1330657 C43.213333,25.7573994 49.1617049,24.4151093 56.2922673,23.1182911 C58.9493659,22.3060823 61.8478769,21.783574 64.1528111,20.5488126 L68.5395025,15.021075 C71.0825589,12.8936674 73.4267526,10.7165441 76.5606533,8.73683921 C79.3084837,7.50545719 81.1262431,6.03490451 86.4497532,5.46583137 C88.418026,5.07362673 90.337336,5.36790568 92.2268667,6.07861416 C93.4601392,6.70681078 94.5080444,7.46746916 94.6484083,8.87631639 C94.4058247,10.5808423 93.8369523,12.2853738 92.8058328,13.9898997 L87.9880676,22.1040241 C87.4828246,23.2582925 86.6050067,24.0398967 86.5215803,25.6159035 C90.6744435,26.9027173 94.8273067,28.0994628 98.9801141,29.8378166 C102.928594,31.0321642 106.007063,32.7098163 109.287629,34.2752164 C113.167516,35.7712542 115.664732,37.2672977 118.420259,38.7633356 C122.866564,41.3285814 126.461151,43.8938273 130.23642,46.4590731 L134.762639,50.3132964 C136.774409,47.4101791 138.156522,45.0975659 142.707668,41.5948267 C145.701261,39.5711333 148.471788,37.4686978 152.748955,35.8980334 C156.169718,35.0908157 159.200785,34.0156743 163.804408,34.0216468 C165.591217,34.1047944 168.747312,34.1346852 169.323713,35.4796465 L164.48063,39.3930323 C162.437965,41.052711 160.395356,43.4876141 158.352746,45.7406354 C156.046753,49.2848871 154.884861,51.6849921 154.067438,53.7406675 C153.492487,55.9185213 152.711647,58.0963696 153.036263,60.2742234 C153.052993,62.6609445 154.76831,65.6851417 155.943864,68.506684 L162.033659,75.9446193 L169.311054,82.304926 C168.029656,84.3743924 168.214242,83.8103493 164.877854,85.4660462 C162.322473,86.1659249 159.767092,86.0669229 157.211711,85.7492277 L150.872529,83.4671299 C148.443236,81.7099884 145.56402,80.0625505 144.102273,78.2309777 L138.04209,72.1327115 L134.631588,67.8981562 C133.310372,69.8917692 131.733634,71.7393469 129.860332,73.4174507 C127.240318,75.6578409 124.46031,77.4980017 121.68705,79.3551322 L115.166181,82.7275734 L107.931057,85.9182778 C102.459432,88.1628114 96.9227825,90.0819429 91.3731399,91.9362405 L84.2268514,94.0281695 C84.0974735,95.5100372 84.8308565,96.5604519 85.9595114,97.4132809 L91.00129,101.056189 L95.0625849,104.63994 C93.722966,105.757815 91.801035,106.196373 90.016568,106.795242 C88.4148474,107.213099 86.2865809,107.01669 84.2310896,106.905157 C81.0000997,105.950733 78.3463471,104.573037 76.2986631,102.750878 L72.9937827,99.6531524 L69.8791772,95.5749436 C67.8464385,94.6897813 65.8136998,94.1855812 63.7809054,93.8507043 L50.967363,92.3419796 C44.9202847,91.9094559 38.7991487,91.0329374 32.5161788,89.185092 C27.7499975,87.3506082 23.1904862,85.1027843 18.9757223,82.1655101 C15.5476542,79.2108647 12.302165,76.2983619 9.88960185,73.5780634 L4.23506278,65.7639395 Z" id="path4134" stroke="#C3EAD8" stroke-width="0.5" fill="#C3EAD8"></path>
                <path d="M45.3933076,48.8647886 C45.3933076,52.4931052 42.4519617,55.4344354 38.823645,55.4344354 C35.1953284,55.4344354 32.2540609,52.4931052 32.2540609,48.8647886 C32.2540609,45.2364719 35.1953284,42.2951417 38.823645,42.2951417 C42.4519617,42.2951417 45.3933076,45.2364719 45.3933076,48.8647886 Z" id="path4140" stroke="#28429D" stroke-width="2.78831675" fill="#28429D"></path>
                <path d="M51.275249,87.3235058 L55.1029944,83.9128144 L59.8109,78.0582973 L63.1668065,71.4924024 C64.1085326,69.4993638 64.9552886,67.0944072 65.268807,64.6302211 L65.8457097,59.0468287 C65.8122499,56.609851 65.7793477,54.1751653 65.2825255,51.4299448 C64.8230109,48.593708 64.1169533,45.6752159 62.9479794,42.602463 L59.6650152,35.671795 L55.7254583,29.616586 L54.5582131,27.7197666 L57.3693383,30.1591255 L61.9221577,34.8852331 L64.0811513,37.7693063 L67.1793058,43.3320093 L68.7843167,47.8551777 L69.8056771,51.3569913 L70.3893276,54.6399387 L70.5354354,59.0901591 L70.2437775,63.394467 L69.222417,67.8446818 L68.0344826,71.7157355 L65.7935682,75.3589836 L63.8967878,77.9123902 L61.3226696,80.7623678 L57.269405,83.846854 L53.1724755,86.5939594 L51.275249,87.3235058 Z" id="path4142" stroke="#28429D" stroke-width="0.5" fill="#28429D"></path>
            </g>
        </g>
    </g>
</svg>