<?xml version="1.0" encoding="UTF-8"?>
<svg width="231px" height="231px" viewBox="0 0 231 231" version="1.1" xmlns="http://www.w3.org/2000/svg" xmlns:xlink="http://www.w3.org/1999/xlink">
    <!-- Generator: Sketch 51.3 (57544) - http://www.bohemiancoding.com/sketch -->
    <title>g3643</title>
    <desc>Created with Sketch.</desc>
    <defs></defs>
    <g id="Page-1" stroke="none" stroke-width="1" fill="none" fill-rule="evenodd" stroke-linecap="round" stroke-linejoin="round">
        <g id="g3643" transform="translate(6.000000, 6.000000)" fill-rule="nonzero">
            <path d="M215.929284,109.296206 C215.929284,168.135763 168.230398,215.834651 109.390841,215.834651 C50.5512838,215.834651 2.85239448,168.135763 2.85239448,109.296206 C2.85239448,50.4566423 50.5512838,2.75775511 109.390841,2.75775511 C168.230398,2.75775511 215.929284,50.4566423 215.929284,109.296206 Z" id="path3230-2-5" stroke="#02A75B" stroke-width="17.2396645" fill="#02A75B"></path>
            <g id="g4007" transform="translate(31.037752, 12.075586)" stroke-width="0.5">
                <g id="g4059" transform="translate(0.000000, 139.415838)">
                    <path d="M5.51127536,9.71988258 L10.1076482,12.9656562 L14.7911281,15.0568937 L20.563836,16.7995917 L25.4433903,18.0194803 L33.1112614,19.2393688 L38.1650855,19.9800183 L42.8050119,20.0889299 L48.6212733,19.762195 L57.6833028,18.1937668 L65.0026342,16.9738782 L70.9713608,15.4925849 L81.6454277,12.8131854 L87.6577078,11.0487051 L96.3276442,8.08611858 L103.254883,5.97309868 C105.483305,5.22633727 107.45827,4.85975169 109.463237,4.44823517 C111.602768,3.95369931 113.91077,3.75391084 116.281508,3.66402109 C119.652862,3.61327372 122.179077,3.8120807 125.212877,4.47002308 C127.10079,4.88007294 128.988704,5.58940957 130.876617,6.34342061 C132.793474,7.36103353 134.722375,8.28185841 136.583967,9.74168165 C138.430056,10.8732642 139.806927,12.3176848 141.332805,13.6627521 L146.909439,19.4136554 C148.80226,21.7868531 151.005866,24.0823627 152.486072,26.558717 L154.424845,28.6717369 C154.641776,28.6159706 154.85313,28.5179892 155.013012,28.0617926 C155.680758,28.6330518 155.990317,29.2640145 156.320008,29.8916255 C155.681037,29.8748956 155.042011,29.9418152 154.40304,30.0440907 L152.181086,29.5430859 L147.650071,28.7806597 L140.984266,28.7153016 L134.340209,29.1727528 L125.648524,30.741181 C122.536929,31.4622565 119.284916,32.5343531 116.063685,33.5294978 L100.139775,38.9318615 C93.4595258,41.7745002 86.2828446,43.765916 79.4016692,46.2511929 L69.3593792,48.1681607 L60.0795264,49.8237238 L53.3265578,50.6079379 L42.3475606,50.7822077 L33.6340708,49.5623191 C31.2524022,48.8393922 28.8706778,48.1240384 26.4890091,46.9482721 C23.2003568,45.612529 20.8550478,43.6097368 18.2983287,41.7201782 C15.5429698,38.8691076 12.633919,35.9094376 11.2186251,32.5492316 L8.90956428,28.1053517 L6.97079188,22.201961 L6.36087547,18.5205129 L6.09933136,14.0112805 L5.92478273,12.6171221 L5.51127536,9.71988258 Z" id="path4005" stroke="#FEFEFE" fill="#FEFEFE"></path>
                    <g id="g4052" transform="translate(16.729900, 5.576633)" fill="#02A75B" stroke="#02A75B">
                        <path d="M0.846421433,26.9015852 L0.502343146,25.0170846 L0.389137486,24.1327086 L0.76611791,22.1610731 L1.58515807,19.6927826 L2.32456391,18.5221246 L3.68002045,17.536304 L5.40520779,16.6120997 L7.31526053,16.1808029 L9.04044787,16.1191811 L11.5666071,16.6120997 L13.9079009,17.6744818 L16.4340601,19.1382589 L18.7137879,21.1715106 L20.4389752,23.8209023 L22.2257843,27.2712658 L22.7801017,30.5367918 L22.7182011,33.0013404 L21.5475542,36.0820233 C21.2597999,36.4433334 20.9724917,36.7609227 20.6849605,37.0062276 L20.3046341,36.882984 L18.7132302,38.0536421 L17.3577179,38.8546195 L13.0447496,38.7929977 L9.90248387,37.8071772 L7.19145926,36.2668385 L4.85016545,34.2335868 L3.06335631,32.0771082 L1.89270941,29.7973971 L1.33839204,28.5035122 L0.846421433,26.9015852 Z" id="path4011"></path>
                        <path d="M24.4625163,28.5966141 L24.0966891,27.3874104 C24.0085783,26.8538938 23.6455395,26.3989967 23.9182368,25.7623905 L23.94612,23.4422154 C23.9795798,22.3238439 24.5248073,21.1408168 24.8741276,20.2332755 C25.2020336,19.6789581 25.7435805,19.1523678 26.4195243,18.7140779 L27.3392784,17.8153922 C27.6565889,17.4907206 28.2443103,17.328106 28.8466425,17.1743749 C29.4959299,17.0055145 29.4710024,16.8763039 30.9963232,16.6559711 L33.1354082,16.6816236 L35.3130278,17.0874352 C36.3548545,17.457891 37.3966812,17.6701209 38.4385079,18.3023048 L41.1824904,20.0057042 L43.0919297,21.7121987 L45.0349403,24.1437503 C45.8516941,25.3229183 46.5151462,26.7199208 47.0613774,27.8990888 C47.3245945,28.7697574 47.4127053,29.6404316 47.572197,30.5111003 C47.6580772,31.890949 47.6407896,33.2364011 47.3798032,34.5005123 C47.247637,35.7195812 46.7403306,36.6170567 46.2091563,37.4940604 C45.921402,37.8553704 45.6777031,38.1947421 45.3901161,38.440047 L44.7701618,39.0356705 L43.3530277,39.7488662 L41.474706,40.3973561 C40.0516049,40.7833149 38.628448,40.4677333 37.2052911,40.4881995 L33.9759184,39.3934617 C33.0682098,38.8860438 31.852671,38.5463655 31.1559822,37.7224179 C30.4925301,37.5125692 29.7041056,36.2365016 28.9236,35.5584666 L27.0278792,33.5326932 L25.966144,31.8411385 L25.1068405,30.1115791 L24.4625163,28.5966141 Z" id="path4011-1"></path>
                        <path d="M49.0139799,26.3349546 L48.5611572,24.8861285 L48.4262027,23.3700259 C48.0810091,22.1152778 48.376013,21.4072126 48.3871663,20.4616888 L49.2497599,18.254803 L50.2723472,16.9098752 C50.695056,16.3803738 51.1178764,15.8243612 51.5406967,15.5755151 C52.2411777,15.2198374 52.9978153,14.7519355 53.592619,14.6077405 L55.5897788,14.2418018 L57.5763987,14.1366265 C58.6210695,14.3049293 59.7100744,14.4510371 60.6471719,14.6730986 C61.5243206,14.9764117 62.5724489,15.279697 63.0755728,15.5829933 C63.9410105,16.1209154 65.0195314,16.5523572 65.6670901,17.1992579 C66.7724904,17.9791891 67.4501071,18.7056516 68.0992831,19.4285617 C68.8581513,20.1861306 69.537943,20.6801256 70.4561914,21.9690361 C71.3469471,23.6538542 72.4616604,25.3573373 72.7005076,26.9878278 C72.847173,28.1860735 73.1070442,29.6301818 72.9280342,30.1226543 C72.8945744,31.1690928 72.5477078,31.9056546 72.1690544,32.6089852 C71.6381589,33.6691701 71.1151822,34.7378483 70.3013283,35.5153983 C70.013574,35.8767084 69.6173542,36.21608 69.329823,36.4613849 L68.7755056,36.8827554 L67.2494599,37.2909649 L65.8285894,37.9612428 C64.3909333,38.2729209 62.9532772,38.0271586 61.5156211,37.899621 L58.3733554,36.9138005 L55.6623308,35.3734618 L53.321037,33.3402101 L51.5342278,31.1837315 L50.3635809,28.9040205 L49.8092636,27.6101355 L49.0139799,26.3349546 Z" id="path4011-3"></path>
                        <path d="M71.3392513,17.7028502 C71.0353248,16.864197 70.9918271,15.9735027 70.9734242,15.0777001 L70.9232345,13.0170058 L71.2567172,11.9820718 C71.6532158,10.8587984 72.0496587,10.362729 72.4461016,9.60091626 L73.4686888,8.38668797 L74.8241454,7.40086743 L76.5493327,6.47666311 L78.4593855,6.04536628 L80.1845728,5.98374448 L82.710732,6.47666311 L85.0520258,7.27764056 L87.5999897,8.3710957 L90.1410943,10.1429427 L92.4108956,12.6180646 C93.5943688,13.9802242 93.9808295,14.8995713 94.6987095,16.0030755 C95.183319,17.1644039 95.7799072,18.3369413 95.7104781,19.4428714 C95.8811231,20.6899572 95.8108575,21.535135 95.8231261,22.5173642 C95.4628756,23.6995269 95.0995579,24.7716291 94.3911024,25.8376695 C94.1033481,26.1989796 93.5982167,26.8868908 93.3106854,27.1321957 L92.2768334,27.9238713 L91.360704,28.5063674 L88.719945,29.1112872 C87.2650013,29.2707231 85.781338,29.3010043 84.210958,28.9407537 L80.7419016,27.846016 L77.704142,26.1531898 C76.6985077,25.6850314 76.1801038,24.9384764 75.5589226,24.2506432 L73.902774,22.2030819 L72.7103782,20.3590453 L71.9817911,19.0869427 L71.3392513,17.7028502 Z" id="path4011-8"></path>
                        <path d="M95.2821369,11.9752293 L94.8075654,10.1560813 L94.6943597,9.09743548 C94.705513,8.44068093 94.7278195,7.7906295 94.8532938,7.19115255 C94.939174,6.34011366 95.4812785,5.30663521 95.8248549,4.35253456 L96.8474422,3.2690114 L98.3771685,2.28319086 C99.0175891,2.00419189 99.6580097,1.7251483 100.29843,1.44612145 L102.099516,1.34155957 L103.868312,1.23638426 L106.612295,1.7293029 C107.337926,2.06975637 107.569691,2.04165014 108.713961,2.48671568 C109.895426,3.20298406 111.244693,3.8446817 111.937199,4.77827707 C112.561057,5.0320139 113.023583,5.52769854 113.541652,5.94017424 L115.615379,7.97962161 C116.457228,9.12541345 116.942116,10.5686852 117.445742,11.9963648 C117.717882,13.1574868 118.048074,14.3186088 118.043613,15.4797252 C117.869064,16.3536618 117.827797,17.093932 117.763666,17.8571389 L116.898005,19.609016 C116.610251,19.9703261 115.71297,20.9414299 115.425439,21.1867348 L114.500554,21.8259174 L113.584425,22.1687688 L111.858568,22.6430058 L108.438754,22.8210119 L105.100414,22.0312435 L102.454747,20.6433923 L99.89563,18.7844104 L97.1503091,15.9744172 L96.3718669,14.8056775 L95.8392984,13.4900103 L95.2821369,11.9752293 Z" id="path4011-0"></path>
                    </g>
                </g>
                <g id="g4001" fill="#FFFFFF" stroke="#FFFFFF" stroke-opacity="0.94117647">
                    <path d="M41.1743485,38.5004419 L43.146023,31.7229418 L44.7479668,27.1635253 L47.0892606,22.4808874 L49.6770416,17.6750228 L53.0041727,12.9923794 L55.7151973,9.54201586 L57.686816,7.32392104 L60.5210843,4.24323812 L64.8339968,6.58455982 L69.6398838,10.0349233 L75.3083645,14.3478805 L79.3748456,18.6608377 L82.7019767,22.1112068 L85.9059199,26.6706178 L88.7401324,30.6138944 L91.0814262,34.6803978 L92.6834257,38.6236744 L94.0388822,42.9366316 L94.7782881,47.1263619 L95.0247753,51.8089941 L94.7782881,56.1219569 L93.2995322,60.4349141 L91.6975884,64.7478713 L89.233051,68.8143748 L86.7685136,71.8950577 L83.5645704,75.7151074 L80.3606829,78.9190172 L74.1992836,83.3552012 C71.1190859,63.2280658 68.6252154,43.1009304 64.341134,22.9737949 C65.8696334,42.1266869 68.6751262,62.982259 71.1186397,83.3552012 L67.7914529,82.2461538 L64.9572404,81.6300195 L61.3836779,80.0280646 L56.7010345,77.563516 L54.4829286,76.2080149 L52.3880662,74.60606 L49.5538537,72.3879652 L47.3357478,70.046649 L45.1176418,67.4588736 L42.8995358,63.7620508 L40.6814298,57.4774581 L40.1884554,54.8896826 L39.5722932,49.8373586 L40.0652676,45.4011746 L40.6813741,41.0882174 L41.1743485,38.5004419 Z" id="path4068"></path>
                    <polygon id="path4070" points="70.0095589 101.22317 21.9509121 96.4172997 32.5484676 98.6353945 42.4066172 100.237349 50.0467166 101.22317 60.6442721 102.948352 69.2702088 103.934172 66.9288592 107.754216 64.0946468 111.574266 60.5210843 115.271089 57.1938974 117.982086 53.3738477 120.446634 49.0609351 121.925362 45.2408854 122.664729 40.0653234 122.664729 35.5059236 121.802135 30.9465238 120.446634 24.5386931 117.489178 17.7611873 113.176221 12.7088689 108.986491 8.8888192 104.919987 4.94552589 99.9908957 2.48098848 96.5405266 0.386126104 93.3366168 3.46676998 90.6256145 8.39590057 86.3126573 11.7230316 83.8481087 15.0501627 81.7532464 21.581237 78.5493366 26.0173932 76.4544686 31.1929552 75.2221943 37.4775424 74.3596062 42.6531044 74.2363626 47.4589356 75.0989507 51.5254725 76.0847713 56.2081159 78.6725467 60.3978407 82.862277 64.341134 88.0378223 67.668265 93.4598269 69.1469652 98.6353778"></polygon>
                    <path d="M78.6354956,99.6212095 L79.12847,95.5547116 L79.12847,92.1043425 L79.86782,89.0236596 L81.1000887,84.4642487 L83.5646261,79.2886978 L86.7685694,74.60606 L91.8208878,69.9234222 L96.7499626,67.3356467 L100.570012,65.8569187 L105.992006,65.1175519 L110.304974,64.6246333 L115.850211,64.7478769 L120.90253,65.1175519 L126.570954,66.1033725 L131.993004,67.7053274 L136.922079,69.553736 L141.604722,71.2789233 L146.533797,74.3596062 L145.794447,77.6867429 L143.946016,81.8764732 L141.111803,88.653979 L138.031104,93.5830705 L135.443323,97.0334396 L131.86976,101.962531 L128.665873,105.659348 C127.356089,107.097005 125.938508,107.795288 123.983173,109.232944 L119.547017,112.1904 L115.603724,114.038815 L111.413999,115.394316 L107.101031,115.887234 L101.925525,115.640803 L97.1196377,114.162075 L91.3279692,111.5743 L86.2756507,108.247163 L81.9626824,104.796794 L79.7445764,101.962565 L99.2145,94.3224708 L108.949462,90.5024211 L120.90253,85.6965564 L130.514248,81.6300529 L142.713747,76.9383587 L130.883923,80.8906861 L120.16318,84.7107359 L111.413999,87.7914188 L103.157793,90.3791942 L93.669263,94.076017 L87.7543509,96.0476525 L78.6354956,99.6212095 Z" id="path4072"></path>
                    <path d="M71.2418276,83.2319744 L74.1992836,83.355218 L74.6950463,86.0692372 L74.9387452,88.407542 L75.0619888,91.8579055 L75.4345079,96.0476358 L76.1709024,100.607047 L78.6354398,99.3747725 L79.6212213,101.839321 L76.2940902,103.318049 L76.663821,106.645186 L76.7870646,109.232961 L76.7870646,111.943963 L76.7870646,114.778193 L76.5405774,118.351789 L76.1708466,121.309245 L75.8011158,124.389928 L75.06171,127.963518 L73.8294413,132.153248 L72.5971726,135.480391 L70.9952288,138.6843 L68.7771229,142.627577 L67.0519355,145.585033 L64.9570731,144.722439 L66.5590169,142.50435 L68.5306914,138.930754 L70.6255538,134.248116 L71.9810661,130.181613 L72.9668476,127.224157 L73.5830098,124.266701 L74.1991163,121.309245 C74.5549055,118.474079 74.7838263,115.258887 74.8152785,111.451056 L74.6920349,106.275505 L74.0759285,104.30387 L69.3932851,104.057438 L70.1326352,101.346436 L73.7061977,101.716111 L72.843604,97.5263806 L72.3506296,92.597289 L72.2318473,89.52264 L71.2418276,83.2319744 Z" id="path3231"></path>
                </g>
            </g>
        </g>
    </g>
</svg>