<?xml version="1.0" encoding="UTF-8"?>
<svg width="50px" height="47px" viewBox="0 0 50 47" version="1.1" xmlns="http://www.w3.org/2000/svg" xmlns:xlink="http://www.w3.org/1999/xlink">
    <!-- Generator: Sketch 51.3 (57544) - http://www.bohemiancoding.com/sketch -->
    <title>icons8-news</title>
    <desc>Created with Sketch.</desc>
    <defs>
        <linearGradient x1="100%" y1="100%" x2="0%" y2="0%" id="linearGradient-1">
            <stop stop-color="#A9DD81" offset="0%"></stop>
            <stop stop-color="#4AB877" offset="100%"></stop>
        </linearGradient>
    </defs>
    <g id="Page-1" stroke="none" stroke-width="1" fill="none" fill-rule="evenodd">
        <g id="Desktop-HD-Copy-24" transform="translate(-365.000000, -1011.000000)" fill="url(#linearGradient-1)" fill-rule="nonzero">
            <g id="icons8-news" transform="translate(365.000000, 1011.000000)">
                <path d="M1.71875,0.78125 C1.253906,0.886719 0.925781,1.304688 0.9375,1.78125 L0.9375,37.46875 C0.9375,41.714844 3.144531,44.109375 5.3125,45.1875 C7.480469,46.265625 9.625,46.21875 9.625,46.21875 L40.375,46.21875 L40.375,46.125 C40.855469,46.179688 41.375,46.21875 41.375,46.21875 C41.375,46.21875 43.296875,46.230469 45.21875,45.125 C47.09375,44.046875 48.941406,41.765625 49.03125,37.8125 C49.042969,37.792969 49.054688,37.769531 49.0625,37.75 C49.0625,37.726563 49.0625,37.710938 49.0625,37.6875 C49.066406,37.636719 49.066406,37.582031 49.0625,37.53125 L49.0625,12.4375 C49.0625,12.425781 49.0625,12.417969 49.0625,12.40625 C49.0625,12.40625 49.078125,11.234375 48.46875,10.03125 C47.859375,8.828125 46.441406,7.53125 44.21875,7.53125 L44.21875,7.5 L34.75,7.5 L34.75,9.5 L40.3125,9.5 C40.191406,9.671875 40.089844,9.828125 40,10 C39.390625,11.191406 39.375,12.375 39.375,12.375 L39.375,36.625 C39.371094,36.984375 39.558594,37.320313 39.871094,37.503906 C40.183594,37.683594 40.566406,37.683594 40.878906,37.503906 C41.191406,37.320313 41.378906,36.984375 41.375,36.625 L41.375,12.375 C41.375,12.347656 41.414063,11.625 41.78125,10.90625 C42.15625,10.175781 42.683594,9.53125 44.21875,9.53125 C45.75,9.53125 46.277344,10.191406 46.65625,10.9375 C47.027344,11.671875 47.09375,12.410156 47.09375,12.4375 L47.0625,12.4375 L47.0625,37.53125 C47.0625,41.089844 45.640625,42.589844 44.21875,43.40625 C42.796875,44.222656 41.375,44.21875 41.375,44.21875 C41.375,44.21875 39.683594,44.195313 38,43.34375 C36.316406,42.492188 34.6875,40.996094 34.6875,37.46875 L34.6875,1.78125 C34.6875,1.230469 34.238281,0.78125 33.6875,0.78125 L1.9375,0.78125 C1.863281,0.773438 1.792969,0.773438 1.71875,0.78125 Z M2.9375,2.78125 L32.6875,2.78125 L32.6875,37.46875 C32.6875,40.757813 34.082031,42.910156 35.71875,44.2187714 L9.625,44.21875 C9.613281,44.21875 9.605469,44.21875 9.59375,44.21875 C9.59375,44.21875 9.164063,44.222656 8.53125,44.125 C8.214844,44.074219 7.863281,43.992188 7.46875,43.875 C7.074219,43.757813 6.636719,43.613281 6.21875,43.40625 C6.007813,43.300781 5.796875,43.191406 5.59375,43.0625 C4.164063,42.164063 2.9375,40.613281 2.9375,37.46875 L2.9375,2.78125 Z M6.9375,9 C6.386719,9.078125 6,9.589844 6.078125,10.140625 C6.15625,10.691406 6.667969,11.078125 7.21875,11 L26.9375,11 C27.296875,11.003906 27.632813,10.816406 27.816406,10.503906 C27.996094,10.191406 27.996094,9.808594 27.816406,9.496094 C27.632813,9.183594 27.296875,8.996094 26.9375,9 L7.21875,9 C7.1875,9 7.15625,9 7.125,9 C7.09375,9 7.0625,9 7.03125,9 C7,9 6.96875,9 6.9375,9 Z M6.9375,13 C6.386719,13.078125 6,13.589844 6.078125,14.140625 C6.15625,14.691406 6.667969,15.078125 7.21875,15 L26.9375,15 C27.296875,15.003906 27.632813,14.816406 27.816406,14.503906 C27.996094,14.191406 27.996094,13.808594 27.816406,13.496094 C27.632813,13.183594 27.296875,12.996094 26.9375,13 L7.21875,13 C7.1875,13 7.15625,13 7.125,13 C7.09375,13 7.0625,13 7.03125,13 C7,13 6.96875,13 6.9375,13 Z M7.40625,21 C6.855469,21.078125 6.46875,21.589844 6.546875,22.140625 C6.625,22.691406 7.136719,23.078125 7.6875,23 L14.46875,23 C14.828125,23.003906 15.164063,22.816406 15.347656,22.503906 C15.527344,22.191406 15.527344,21.808594 15.347656,21.496094 C15.164063,21.183594 14.828125,20.996094 14.46875,21 L7.6875,21 C7.65625,21 7.625,21 7.59375,21 C7.5625,21 7.53125,21 7.5,21 C7.46875,21 7.4375,21 7.40625,21 Z M18.9375,21 C18.386719,21.078125 18,21.589844 18.078125,22.140625 C18.15625,22.691406 18.667969,23.078125 19.21875,23 L26.9375,23 C27.296875,23.003906 27.632813,22.816406 27.816406,22.503906 C27.996094,22.191406 27.996094,21.808594 27.816406,21.496094 C27.632813,21.183594 27.296875,20.996094 26.9375,21 L19.21875,21 C19.1875,21 19.15625,21 19.125,21 C19.09375,21 19.0625,21 19.03125,21 C19,21 18.96875,21 18.9375,21 Z M7.40625,25 C6.855469,25.078125 6.46875,25.589844 6.546875,26.140625 C6.625,26.691406 7.136719,27.078125 7.6875,27 L14.46875,27 C14.828125,27.003906 15.164063,26.816406 15.347656,26.503906 C15.527344,26.191406 15.527344,25.808594 15.347656,25.496094 C15.164063,25.183594 14.828125,24.996094 14.46875,25 L7.6875,25 C7.65625,25 7.625,25 7.59375,25 C7.5625,25 7.53125,25 7.5,25 C7.46875,25 7.4375,25 7.40625,25 Z M18.9375,25 C18.386719,25.078125 18,25.589844 18.078125,26.140625 C18.15625,26.691406 18.667969,27.078125 19.21875,27 L26.9375,27 C27.296875,27.003906 27.632813,26.816406 27.816406,26.503906 C27.996094,26.191406 27.996094,25.808594 27.816406,25.496094 C27.632813,25.183594 27.296875,24.996094 26.9375,25 L19.21875,25 C19.1875,25 19.15625,25 19.125,25 C19.09375,25 19.0625,25 19.03125,25 C19,25 18.96875,25 18.9375,25 Z M18.9375,28.78125 C18.386719,28.859375 18,29.371094 18.078125,29.921875 C18.15625,30.472656 18.667969,30.859375 19.21875,30.78125 L26.9375,30.78125 C27.296875,30.785156 27.632813,30.597656 27.816406,30.285156 C27.996094,29.972656 27.996094,29.589844 27.816406,29.277344 C27.632813,28.964844 27.296875,28.777344 26.9375,28.78125 L19.21875,28.78125 C19.15625,28.773438 19.09375,28.773438 19.03125,28.78125 C19,28.78125 18.96875,28.78125 18.9375,28.78125 Z M7.40625,29 C6.855469,29.078125 6.46875,29.589844 6.546875,30.140625 C6.625,30.691406 7.136719,31.078125 7.6875,31 L14.46875,31 C14.828125,31.003906 15.164063,30.816406 15.347656,30.503906 C15.527344,30.191406 15.527344,29.808594 15.347656,29.496094 C15.164063,29.183594 14.828125,28.996094 14.46875,29 L7.6875,29 C7.65625,29 7.625,29 7.59375,29 C7.5625,29 7.53125,29 7.5,29 C7.46875,29 7.4375,29 7.40625,29 Z M18.9375,32.78125 C18.386719,32.859375 18,33.371094 18.078125,33.921875 C18.15625,34.472656 18.667969,34.859375 19.21875,34.78125 L26.9375,34.78125 C27.296875,34.785156 27.632813,34.597656 27.816406,34.285156 C27.996094,33.972656 27.996094,33.589844 27.816406,33.277344 C27.632813,32.964844 27.296875,32.777344 26.9375,32.78125 L19.21875,32.78125 C19.15625,32.773438 19.09375,32.773438 19.03125,32.78125 C19,32.78125 18.96875,32.78125 18.9375,32.78125 Z M7.40625,33 C6.855469,33.078125 6.46875,33.589844 6.546875,34.140625 C6.625,34.691406 7.136719,35.078125 7.6875,35 L14.46875,35 C14.828125,35.003906 15.164063,34.816406 15.347656,34.503906 C15.527344,34.191406 15.527344,33.808594 15.347656,33.496094 C15.164063,33.183594 14.828125,32.996094 14.46875,33 L7.6875,33 C7.65625,33 7.625,33 7.59375,33 C7.5625,33 7.53125,33 7.5,33 C7.46875,33 7.4375,33 7.40625,33 Z M18.9375,36.53125 C18.386719,36.609375 18,37.121094 18.078125,37.671875 C18.15625,38.222656 18.667969,38.609375 19.21875,38.53125 L26.9375,38.53125 C27.296875,38.535156 27.632813,38.347656 27.816406,38.035156 C27.996094,37.722656 27.996094,37.339844 27.816406,37.027344 C27.632813,36.714844 27.296875,36.527344 26.9375,36.53125 L19.21875,36.53125 C19.1875,36.53125 19.15625,36.53125 19.125,36.53125 C19.09375,36.53125 19.0625,36.53125 19.03125,36.53125 C19,36.53125 18.96875,36.53125 18.9375,36.53125 Z M7.40625,37 C6.855469,37.078125 6.46875,37.589844 6.546875,38.140625 C6.625,38.691406 7.136719,39.078125 7.6875,39 L14.46875,39 C14.828125,39.003906 15.164063,38.816406 15.347656,38.503906 C15.527344,38.191406 15.527344,37.808594 15.347656,37.496094 C15.164063,37.183594 14.828125,36.996094 14.46875,37 L7.6875,37 C7.65625,37 7.625,37 7.59375,37 C7.5625,37 7.53125,37 7.5,37 C7.46875,37 7.4375,37 7.40625,37 Z" id="Shape"></path>
            </g>
        </g>
    </g>
</svg>