<svg width="201" height="50" viewBox="0 0 201 50" fill="none" xmlns="http://www.w3.org/2000/svg">
<path d="M73.5108 11.843V10.3651H80.7086V11.843L78.3823 12.1987V28.4005H76.0834L66.4499 15.045V26.5121L69.5698 26.8679V28.3458H62.3447V26.8679L64.671 26.5395V12.5545L64.2878 12.0345L62.3995 11.843V10.3651H68.5846L76.6308 21.4217V12.1987L73.5108 11.843Z" fill="#364152"/>
<path d="M92.9636 28.6468L92.7994 26.3479C92.2155 27.1142 91.5496 27.7072 90.8015 28.1268C90.0535 28.5465 89.2415 28.7563 88.3658 28.7563C87.1981 28.7563 86.2584 28.3914 85.5469 27.6616C84.8353 26.9135 84.4887 25.6364 84.5069 23.8301L84.6164 17.1523L83.029 16.7965V15.6471L88.6121 14.8534L89.05 15.1545L88.9131 19.0133V23.8575C88.9131 24.6967 89.0408 25.2806 89.2963 25.609C89.57 25.9374 89.9349 26.1016 90.391 26.1016C90.7741 26.1016 91.1664 25.983 91.5678 25.7458C91.9875 25.5087 92.3797 25.2167 92.7446 24.8701L92.8541 17.125L91.3489 16.7965V15.7292L96.7951 14.8534L97.233 15.1545L97.1509 19.0133V26.7858L98.574 27.0869V28.3732L92.9636 28.6468Z" fill="#364152"/>
<path d="M107.054 28.7563C105.832 28.7563 104.874 28.4644 104.18 27.8805C103.487 27.2784 103.14 26.3023 103.14 24.9522C103.14 24.4778 103.14 24.0399 103.14 23.6385C103.159 23.2189 103.168 22.7445 103.168 22.2154V16.9881H101.389V15.3734L103.414 15.0997L104.782 11.2682H107.574L107.519 15.1271H110.393V16.9881H107.519V24.6511C107.519 25.2897 107.647 25.7641 107.902 26.0743C108.176 26.3662 108.514 26.5121 108.915 26.5121C109.389 26.5121 109.882 26.3114 110.393 25.91L111.077 26.5669C110.712 27.2602 110.201 27.7984 109.544 28.1816C108.906 28.5647 108.076 28.7563 107.054 28.7563Z" fill="#364152"/>
<path d="M113.59 28.3458V27.0595L115.095 26.7585C115.114 26.0834 115.123 25.3627 115.123 24.5964C115.123 23.8301 115.123 23.1641 115.123 22.5985V20.9838C115.123 20.473 115.114 20.0533 115.095 19.7249C115.095 19.3965 115.086 19.0954 115.068 18.8218C115.068 18.5298 115.059 18.2014 115.041 17.8365L113.371 17.5902V16.5229L118.763 14.6892L119.255 14.9903L119.502 18.2197C119.885 17.052 120.423 16.1762 121.116 15.5924C121.81 14.9903 122.494 14.6892 123.169 14.6892C123.771 14.6892 124.291 14.8625 124.729 15.2092C125.167 15.5376 125.44 16.0394 125.55 16.7144C125.532 17.426 125.34 17.9825 124.975 18.3839C124.61 18.767 124.154 18.9586 123.607 18.9586C122.84 18.9586 122.138 18.5298 121.499 17.6723L121.335 17.4534C120.934 17.8365 120.56 18.32 120.213 18.9039C119.885 19.4877 119.648 20.0989 119.502 20.7375V22.5985C119.502 23.1641 119.502 23.8118 119.502 24.5417C119.502 25.2715 119.511 25.9557 119.529 26.5942L121.691 27.0595V28.3458H113.59Z" fill="#364152"/>
<path d="M128.349 28.3458V27.0595L129.827 26.7311C129.845 26.0743 129.854 25.3627 129.854 24.5964C129.854 23.8301 129.854 23.1641 129.854 22.5985V21.2849C129.854 20.5368 129.845 19.9165 129.827 19.4239C129.827 18.913 129.808 18.3839 129.772 17.8365L128.075 17.5902V16.5229L133.822 14.6892L134.288 14.9903L134.206 18.9586V22.5985C134.206 23.1641 134.206 23.8392 134.206 24.6238C134.206 25.3901 134.215 26.1107 134.233 26.7858L135.601 27.0595V28.3458H128.349ZM131.989 12.664C131.35 12.664 130.803 12.4633 130.347 12.0619C129.891 11.6423 129.663 11.1223 129.663 10.5019C129.663 9.86335 129.891 9.34336 130.347 8.94196C130.803 8.52232 131.35 8.3125 131.989 8.3125C132.627 8.3125 133.175 8.52232 133.631 8.94196C134.087 9.34336 134.315 9.86335 134.315 10.5019C134.315 11.1223 134.087 11.6423 133.631 12.0619C133.175 12.4633 132.627 12.664 131.989 12.664Z" fill="#364152"/>
<path d="M145.696 16.1123C145.185 16.1123 144.71 16.4316 144.272 17.0702C143.853 17.6906 143.616 18.84 143.561 20.5186H145.887C146.544 20.5186 146.982 20.3909 147.201 20.1354C147.438 19.8617 147.557 19.4147 147.557 18.7944C147.557 17.8821 147.374 17.2071 147.009 16.7692C146.644 16.3313 146.206 16.1123 145.696 16.1123ZM145.75 28.7563C144.418 28.7563 143.242 28.4826 142.22 27.9353C141.198 27.3697 140.395 26.5669 139.811 25.5269C139.228 24.4687 138.936 23.2097 138.936 21.7501C138.936 20.2175 139.273 18.9312 139.948 17.8913C140.642 16.833 141.527 16.0394 142.603 15.5103C143.679 14.9629 144.802 14.6892 145.969 14.6892C147.173 14.6892 148.195 14.9447 149.034 15.4555C149.892 15.9664 150.54 16.6597 150.978 17.5355C151.415 18.393 151.634 19.3782 151.634 20.4912C151.634 21.0203 151.58 21.5038 151.47 21.9417H143.561C143.652 23.3831 144.044 24.4504 144.738 25.1437C145.449 25.8188 146.279 26.1564 147.228 26.1564C147.976 26.1564 148.615 26.0195 149.144 25.7458C149.673 25.4539 150.138 25.0981 150.54 24.6785L151.498 25.5543C150.932 26.6307 150.166 27.4335 149.199 27.9626C148.232 28.4917 147.082 28.7563 145.75 28.7563Z" fill="#364152"/>
<path d="M155.135 28.3458V27.0595L156.613 26.7311C156.631 26.0743 156.64 25.3627 156.64 24.5964C156.64 23.8301 156.64 23.1641 156.64 22.5985V21.0112C156.64 20.2631 156.631 19.6884 156.613 19.287C156.613 18.8674 156.595 18.3839 156.558 17.8365L154.889 17.5902V16.5229L160.28 14.6892L160.773 14.9903L160.937 16.9608C161.649 16.1215 162.351 15.5376 163.044 15.2092C163.756 14.8625 164.513 14.6892 165.316 14.6892C166.502 14.6892 167.451 15.0815 168.162 15.866C168.892 16.6506 169.257 17.8274 169.257 19.3965V22.5985C169.257 23.2006 169.257 23.8848 169.257 24.6511C169.257 25.3992 169.266 26.1107 169.284 26.7858L170.653 27.0595V28.3458H163.428V27.0595L164.851 26.7585C164.869 26.0834 164.878 25.3718 164.878 24.6238C164.878 23.8575 164.878 23.1824 164.878 22.5985V19.7249C164.878 18.8491 164.759 18.2379 164.522 17.8913C164.285 17.5264 163.902 17.3439 163.373 17.3439C162.661 17.3439 161.877 17.6723 161.019 18.3291V22.5985C161.019 23.1641 161.019 23.8392 161.019 24.6238C161.019 25.3901 161.028 26.1107 161.047 26.7858L162.333 27.0595V28.3458H155.135Z" fill="#364152"/>
<path d="M179.021 28.7563C177.798 28.7563 176.84 28.4644 176.147 27.8805C175.454 27.2784 175.107 26.3023 175.107 24.9522C175.107 24.4778 175.107 24.0399 175.107 23.6385C175.125 23.2189 175.134 22.7445 175.134 22.2154V16.9881H173.355V15.3734L175.381 15.0997L176.749 11.2682H179.541L179.486 15.1271H182.359V16.9881H179.486V24.6511C179.486 25.2897 179.614 25.7641 179.869 26.0743C180.143 26.3662 180.48 26.5121 180.882 26.5121C181.356 26.5121 181.849 26.3114 182.359 25.91L183.044 26.5669C182.679 27.2602 182.168 27.7984 181.511 28.1816C180.873 28.5647 180.042 28.7563 179.021 28.7563Z" fill="#364152"/>
<path d="M192.265 16.1123C191.754 16.1123 191.279 16.4316 190.841 17.0702C190.422 17.6906 190.185 18.84 190.13 20.5186H192.456C193.113 20.5186 193.551 20.3909 193.77 20.1354C194.007 19.8617 194.126 19.4147 194.126 18.7944C194.126 17.8821 193.943 17.2071 193.578 16.7692C193.213 16.3313 192.775 16.1123 192.265 16.1123ZM192.319 28.7563C190.987 28.7563 189.811 28.4826 188.789 27.9353C187.767 27.3697 186.964 26.5669 186.38 25.5269C185.797 24.4687 185.505 23.2097 185.505 21.7501C185.505 20.2175 185.842 18.9312 186.517 17.8913C187.211 16.833 188.095 16.0394 189.172 15.5103C190.248 14.9629 191.37 14.6892 192.538 14.6892C193.742 14.6892 194.764 14.9447 195.603 15.4555C196.461 15.9664 197.109 16.6597 197.547 17.5355C197.984 18.393 198.203 19.3782 198.203 20.4912C198.203 21.0203 198.149 21.5038 198.039 21.9417H190.13C190.221 23.3831 190.613 24.4504 191.307 25.1437C192.018 25.8188 192.848 26.1564 193.797 26.1564C194.545 26.1564 195.184 26.0195 195.713 25.7458C196.242 25.4539 196.707 25.0981 197.109 24.6785L198.066 25.5543C197.501 26.6307 196.735 27.4335 195.768 27.9626C194.801 28.4917 193.651 28.7563 192.319 28.7563Z" fill="#364152"/>
<path d="M63.7961 37.8897V40.2825H66.6111V41.3733H63.7961V43.8716H66.963V44.9624H62.459V36.7989H66.963V37.8897H63.7961Z" fill="#97A6BA"/>
<path d="M81.0701 45.0445C80.5227 45.0445 80.0301 44.9506 79.5922 44.763C79.1543 44.5675 78.8103 44.2938 78.5601 43.9419C78.3098 43.5901 78.1847 43.1795 78.1847 42.7104H79.6157C79.647 43.0622 79.7838 43.3516 80.0262 43.5783C80.2764 43.8051 80.6244 43.9185 81.0701 43.9185C81.5314 43.9185 81.8911 43.809 82.1492 43.5901C82.4072 43.3633 82.5362 43.074 82.5362 42.7221C82.5362 42.4484 82.4541 42.2256 82.2899 42.0535C82.1335 41.8815 81.9341 41.7486 81.6917 41.6548C81.4572 41.5609 81.1287 41.4593 80.7065 41.3498C80.1748 41.209 79.7408 41.0683 79.4046 40.9276C79.0761 40.779 78.7946 40.5522 78.5601 40.2473C78.3255 39.9423 78.2082 39.5357 78.2082 39.0274C78.2082 38.5583 78.3255 38.1478 78.5601 37.7959C78.7946 37.444 79.1231 37.1742 79.5453 36.9866C79.9676 36.7989 80.4563 36.7051 81.0114 36.7051C81.8012 36.7051 82.4463 36.9045 82.9467 37.3033C83.455 37.6942 83.7365 38.2338 83.7912 38.9219H82.3134C82.2899 38.6247 82.1492 38.3706 81.8911 38.1595C81.6331 37.9484 81.2929 37.8428 80.8707 37.8428C80.4875 37.8428 80.1748 37.9405 79.9324 38.136C79.69 38.3315 79.5688 38.613 79.5688 38.9805C79.5688 39.2307 79.6431 39.438 79.7916 39.6022C79.948 39.7586 80.1435 39.8837 80.3781 39.9775C80.6127 40.0713 80.9333 40.173 81.3399 40.2825C81.8794 40.431 82.3173 40.5796 82.6535 40.7282C82.9976 40.8767 83.2869 41.1074 83.5215 41.4202C83.7639 41.7251 83.8851 42.1356 83.8851 42.6517C83.8851 43.0662 83.7717 43.4571 83.5449 43.8246C83.326 44.1921 83.0015 44.4893 82.5714 44.716C82.1492 44.935 81.6487 45.0445 81.0701 45.0445Z" fill="#97A6BA"/>
<path d="M97.923 45.0445C97.3757 45.0445 96.883 44.9506 96.4452 44.763C96.0073 44.5675 95.6632 44.2938 95.413 43.9419C95.1628 43.5901 95.0377 43.1795 95.0377 42.7104H96.4686C96.4999 43.0622 96.6367 43.3516 96.8791 43.5783C97.1294 43.8051 97.4773 43.9185 97.923 43.9185C98.3844 43.9185 98.7441 43.809 99.0021 43.5901C99.2601 43.3633 99.3892 43.074 99.3892 42.7221C99.3892 42.4484 99.3071 42.2256 99.1428 42.0535C98.9865 41.8815 98.7871 41.7486 98.5447 41.6548C98.3101 41.5609 97.9817 41.4593 97.5594 41.3498C97.0277 41.209 96.5937 41.0683 96.2575 40.9276C95.9291 40.779 95.6476 40.5522 95.413 40.2473C95.1784 39.9423 95.0611 39.5357 95.0611 39.0274C95.0611 38.5583 95.1784 38.1478 95.413 37.7959C95.6476 37.444 95.976 37.1742 96.3982 36.9866C96.8205 36.7989 97.3092 36.7051 97.8644 36.7051C98.6541 36.7051 99.2992 36.9045 99.7997 37.3033C100.308 37.6942 100.589 38.2338 100.644 38.9219H99.1663C99.1428 38.6247 99.0021 38.3706 98.7441 38.1595C98.486 37.9484 98.1459 37.8428 97.7236 37.8428C97.3405 37.8428 97.0277 37.9405 96.7853 38.136C96.5429 38.3315 96.4217 38.613 96.4217 38.9805C96.4217 39.2307 96.496 39.438 96.6446 39.6022C96.8009 39.7586 96.9964 39.8837 97.231 39.9775C97.4656 40.0713 97.7862 40.173 98.1928 40.2825C98.7323 40.431 99.1702 40.5796 99.5065 40.7282C99.8505 40.8767 100.14 41.1074 100.374 41.4202C100.617 41.7251 100.738 42.1356 100.738 42.6517C100.738 43.0662 100.625 43.4571 100.398 43.8246C100.179 44.1921 99.8544 44.4893 99.4243 44.716C99.0021 44.935 98.5017 45.0445 97.923 45.0445Z" fill="#97A6BA"/>
<path d="M113.427 37.8897V40.2825H116.242V41.3733H113.427V43.8716H116.594V44.9624H112.09V36.7989H116.594V37.8897H113.427Z" fill="#97A6BA"/>
<path d="M134.712 44.9624H133.375L129.352 38.875V44.9624H128.015V36.7989H129.352L133.375 42.8746V36.7989H134.712V44.9624Z" fill="#97A6BA"/>
<path d="M145.797 40.8689C145.797 40.0713 145.981 39.3559 146.348 38.7225C146.723 38.0891 147.228 37.5965 147.861 37.2446C148.502 36.8849 149.202 36.7051 149.961 36.7051C150.829 36.7051 151.599 36.9201 152.271 37.3502C152.952 37.7724 153.444 38.3745 153.749 39.1565H152.142C151.931 38.7264 151.638 38.4058 151.263 38.1947C150.887 37.9835 150.453 37.878 149.961 37.878C149.421 37.878 148.94 37.9992 148.518 38.2416C148.096 38.484 147.763 38.832 147.521 39.2855C147.286 39.739 147.169 40.2668 147.169 40.8689C147.169 41.471 147.286 41.9988 147.521 42.4523C147.763 42.9059 148.096 43.2577 148.518 43.508C148.94 43.7504 149.421 43.8716 149.961 43.8716C150.453 43.8716 150.887 43.766 151.263 43.5549C151.638 43.3437 151.931 43.0231 152.142 42.5931H153.749C153.444 43.375 152.952 43.9771 152.271 44.3994C151.599 44.8216 150.829 45.0327 149.961 45.0327C149.194 45.0327 148.495 44.8568 147.861 44.5049C147.228 44.1452 146.723 43.6487 146.348 43.0153C145.981 42.382 145.797 41.6665 145.797 40.8689Z" fill="#97A6BA"/>
<path d="M166.426 36.8106V44.9624H165.089V36.8106H166.426Z" fill="#97A6BA"/>
<path d="M182.87 43.2968H179.457L178.87 44.9624H177.475L180.395 36.7989H181.943L184.864 44.9624H183.456L182.87 43.2968ZM182.495 42.206L181.169 38.4175L179.832 42.206H182.495Z" fill="#97A6BA"/>
<path d="M197.245 43.8833H200.001V44.9624H195.908V36.8106H197.245V43.8833Z" fill="#97A6BA"/>
<path fill-rule="evenodd" clip-rule="evenodd" d="M17.6582 11.3854C15.1806 12.4007 13.966 15.1912 14.8823 17.6837L24.0556 13.9245C22.9593 11.5058 20.1358 10.3701 17.6582 11.3854ZM26.0566 25.8102C25.7336 25.4773 25.3332 25.22 24.8844 25.0673L24.9975 13.9205L24.9718 13.9097C26.0858 11.4983 28.9186 10.3833 31.389 11.4175C33.8593 12.4517 35.0528 15.2523 34.1166 17.7382L34.0956 17.7294L26.0566 25.8102ZM26.8743 27.5376C26.838 27.2162 26.7503 26.9104 26.6197 26.6286L35.038 18.3794L35.0268 18.3521C37.5196 17.435 40.3109 18.6496 41.3263 21.1276C42.3418 23.6056 41.2056 26.4297 38.786 27.5256L38.7783 27.5067L26.8743 27.5376ZM26.6418 29.0704C26.7664 28.7885 26.8482 28.4836 26.8792 28.1637L38.8077 28.2848L34.9984 37.3838L26.6418 29.0704ZM24.8784 30.6827C25.3877 30.5107 25.835 30.204 26.1779 29.8051L34.0339 37.8222L34.0612 37.811C34.9776 40.3035 33.763 43.0941 31.2854 44.1094C28.8077 45.1247 25.9841 43.989 24.8879 41.5702L24.9066 41.5625L24.8784 30.6827ZM22.2532 30.3188C22.7299 30.6463 23.3072 30.8379 23.9293 30.8379C23.9709 30.8379 24.0123 30.8371 24.0535 30.8354L23.9445 41.5729L23.9714 41.5841C22.857 43.9949 20.0247 45.1095 17.5547 44.0754C15.0846 43.0413 13.8911 40.2413 14.8267 37.7557L14.8465 37.764L22.2532 30.3188ZM20.9666 27.9605C20.9845 28.586 21.1962 29.1629 21.5438 29.6334L13.9077 37.116L10.1673 27.9885L20.9666 27.9605ZM21.0173 27.319L10.1357 27.2085L10.1246 27.2351C7.71302 26.1211 6.59792 23.2883 7.63217 20.8178C8.66641 18.3474 11.4671 17.1539 13.953 18.0902L13.9449 18.1098L21.7455 25.8701C21.38 26.2681 21.1219 26.7664 21.0173 27.319ZM22.4105 25.3283L14.9089 17.6728L24.0364 13.9324L24.0649 24.9131C24.02 24.9111 23.9747 24.9101 23.9293 24.9101C23.3742 24.9101 22.8547 25.0627 22.4105 25.3283ZM7.61821 34.3672C8.6337 36.8452 11.4251 38.0598 13.9179 37.1426L10.1587 27.9691C7.73902 29.065 6.60272 31.8891 7.61821 34.3672ZM38.8187 28.2596C41.2305 29.3735 42.3457 32.2064 41.3114 34.677C40.2771 37.1475 37.4762 38.341 34.9902 37.4044L38.8187 28.2596Z" fill="url(#paint0_linear)"/>
<path fill-rule="evenodd" clip-rule="evenodd" d="M8.88619 0.732468C9.9863 1.88122 10.2966 3.49733 9.8316 4.90958C9.49449 4.71626 9.17904 4.47202 8.89662 4.17711C7.79651 3.02836 7.48622 1.41225 7.95121 0C8.28833 0.193319 8.60377 0.437557 8.88619 0.732468ZM10.7241 7.37455C12.5977 6.89909 14.1542 5.43127 14.6473 3.42301C14.774 2.9068 14.822 2.38971 14.7988 1.88438C12.9252 2.35984 11.3687 3.82766 10.8756 5.83592C10.7489 6.35213 10.7009 6.86923 10.7241 7.37455ZM14.5064 8.77989C13.5533 10.8687 11.552 12.148 9.40979 12.2793C9.48901 11.7234 9.64821 11.1694 9.89314 10.6327C10.8463 8.54389 12.8476 7.26451 14.9898 7.13326C14.9106 7.68913 14.7514 8.24314 14.5064 8.77989ZM13.6066 14.2084C12.1067 16.303 9.62737 17.2807 7.2401 16.9641C7.44716 16.3701 7.7416 15.7953 8.12643 15.2578C9.62628 13.1632 12.1056 12.1855 14.4929 12.5021C14.2859 13.0961 13.9914 13.6709 13.6066 14.2084ZM5.65657 16.3844C5.55636 13.9763 4.16325 11.7014 1.83852 10.5866C1.24109 10.3001 0.622442 10.1095 0 10.0088C0.100208 12.4168 1.49331 14.6918 3.81805 15.8066C4.41547 16.0931 5.03412 16.2836 5.65657 16.3844ZM3.59537 7.62579C5.81854 8.20255 7.42587 9.9528 7.92593 12.0408C7.36439 12.0592 6.7908 11.9985 6.21934 11.8503C3.99617 11.2735 2.38883 9.52324 1.88878 7.43528C2.45031 7.41681 3.02391 7.47753 3.59537 7.62579ZM9.36922 7.41149C8.57641 5.64792 6.8606 4.36889 4.79671 4.23139C4.26598 4.19603 3.74806 4.23854 3.2541 4.34915C4.04692 6.11272 5.76272 7.39174 7.82662 7.52925C8.35734 7.5646 8.87527 7.52209 9.36922 7.41149ZM8.39143 13.2593C7.2726 16.0963 6.0078 18.6007 5.06167 19.9464C5.06912 20.0384 5.05654 20.1335 5.02142 20.2249C3.41331 24.4118 3.21971 29.0167 4.48034 33.3327C5.79803 37.844 8.62465 41.7661 12.4875 44.4432C16.3504 47.1202 21.0152 48.3899 25.702 48.0398C30.3887 47.6897 34.8132 45.7411 38.2355 42.5199C41.6577 39.2986 43.8703 35.0001 44.5031 30.3431C45.1359 25.6861 44.1507 20.953 41.7121 16.9353C39.2735 12.9177 35.5295 9.85905 31.1061 8.271C26.8742 6.75172 22.2661 6.66652 17.9896 8.01853C17.6685 8.12002 17.3211 7.95325 17.2101 7.63539C17.0991 7.31752 17.2667 6.96899 17.5875 6.86696C22.1279 5.42321 27.0233 5.50982 31.518 7.12349C36.2043 8.80591 40.1708 12.0463 42.7544 16.3027C45.3379 20.5591 46.3817 25.5735 45.7112 30.5072C45.0408 35.441 42.6968 39.995 39.0711 43.4077C35.4455 46.8203 30.7581 48.8847 25.7928 49.2556C20.8275 49.6265 15.8854 48.2814 11.793 45.4453C7.70061 42.6091 4.70601 38.4539 3.31002 33.6745C1.97108 29.0904 2.18062 24.1987 3.89627 19.754C3.95499 19.6018 4.06929 19.4891 4.20683 19.428C5.15103 18.0798 6.73051 15.6755 7.7787 13.0177C7.90711 12.6921 8.04069 12.3605 8.17632 12.0238C9.21093 9.45523 10.3646 6.59106 10.2505 3.85199L10.2501 3.83784C10.3845 7.06276 9.51738 10.4044 8.39143 13.2593Z" fill="url(#paint1_linear)"/>
<defs>
<linearGradient id="paint0_linear" x1="11.3575" y1="12.6261" x2="36.2023" y2="45.1094" gradientUnits="userSpaceOnUse">
<stop stop-color="#85F52E"/>
<stop offset="0.765625" stop-color="#68D391"/>
</linearGradient>
<linearGradient id="paint1_linear" x1="5.47867" y1="2.37594" x2="42.8862" y2="46.6047" gradientUnits="userSpaceOnUse">
<stop stop-color="#85F52E"/>
<stop offset="0.765625" stop-color="#68D391"/>
</linearGradient>
</defs>
</svg>
